<svg xmlns="http://www.w3.org/2000/svg" width="17" height="20" viewBox="0 0 17 20">
  <g id="Icon" transform="translate(-574.657 -302.813)">
    <g id="Group_54" data-name="Group 54">
      <g id="Bag">
        <g id="Group_53" data-name="Group 53">
          <path id="Path_429" data-name="Path 429" d="M590.44,308.381a.614.614,0,0,0-.6-.569H586.8v-1.25a3.644,3.644,0,1,0-7.286,0v1.25h-3.036a.614.614,0,0,0-.6.569l-1.214,13.75a.635.635,0,0,0,.157.478.6.6,0,0,0,.448.2H591.05a.6.6,0,0,0,.448-.2.639.639,0,0,0,.157-.478Zm-9.712-1.819a2.43,2.43,0,1,1,4.857,0v1.25h-4.857Zm-4.8,15,1.1-12.5h2.481v1.423a1.252,1.252,0,0,0-.607,1.077,1.215,1.215,0,1,0,2.429,0,1.252,1.252,0,0,0-.607-1.077v-1.423h4.857v1.423a1.251,1.251,0,0,0-.607,1.077,1.215,1.215,0,1,0,2.429,0,1.249,1.249,0,0,0-.607-1.077v-1.423h2.481l1.1,12.5Z"/>
        </g>
      </g>
    </g>
  </g>
</svg>
