<?xml version="1.0" encoding="utf-8"?>
<!-- Generator: Adobe Illustrator 24.1.3, SVG Export Plug-In . SVG Version: 6.00 Build 0)  -->
<svg version="1.1" id="Layer_1" xmlns="http://www.w3.org/2000/svg" xmlns:xlink="http://www.w3.org/1999/xlink" x="0px" y="0px"
	 viewBox="0 0 512 512" style="enable-background:new 0 0 512 512;" xml:space="preserve" fill='#5ba000'>
<g>
	<g id="Bag">
		<g>
			<path d="M414.4,148.2c-0.7-7.7-7.1-13.6-14.9-13.6h-74.9v-30c0-49.6-40.3-89.9-89.9-89.9c-49.6,0-89.9,40.3-89.9,89.9v30H69.9
				c-7.8,0-14.2,5.9-14.9,13.6l-30,329.5c-0.4,4.2,1,8.3,3.9,11.4c2.8,3.1,6.8,4.9,11.1,4.9h389.4c4.2,0,8.2-1.8,11.1-4.9
				c2.8-3.1,4.2-7.3,3.9-11.4L414.4,148.2z M174.8,104.6c0-33,26.9-59.9,59.9-59.9c33,0,59.9,26.9,59.9,59.9v30H174.8V104.6z
				 M56.4,464l27.2-299.5h61.2v34.1c-8.9,5.2-15,14.8-15,25.8c0,16.5,13.4,30,30,30s30-13.4,30-30c0-11.1-6-20.6-15-25.8v-34.1
				h119.8v34.1c-8.9,5.2-15,14.7-15,25.8c0,16.5,13.4,30,30,30c16.5,0,30-13.4,30-30c0-11.1-6-20.6-15-25.8v-34.1h61.2L413,464H56.4
				z"/>
		</g>
	</g>
</g>
</svg>
