<?xml version="1.0" encoding="utf-8"?>
<!-- Generator: Adobe Illustrator 24.1.3, SVG Export Plug-In . SVG Version: 6.00 Build 0)  -->
<svg version="1.1" id="icons" xmlns="http://www.w3.org/2000/svg" xmlns:xlink="http://www.w3.org/1999/xlink" x="0px" y="0px"
	 viewBox="0 0 512 512" style="enable-background:new 0 0 512 512;" xml:space="preserve" fill='#0c4ca3'>
<g>
	<path d="M256,512c101.5,0,184-82.5,184-184c0-0.1,0-0.1,0-0.2V224.2c0-0.1,0-0.1,0-0.2C440,100.5,339.5,0,216,0c-4.4,0-8,3.6-8,8
		c0,57.3-46.6,103.9-103.9,104c0,0-0.1,0-0.1,0c-17.6,0-32,14.3-32,32v0v183.8c0,0.1,0,0.1,0,0.2C72,429.5,154.5,512,256,512
		L256,512z M103.9,128C103.9,128,104,128,103.9,128c63.5,0,115.4-49.4,119.7-111.8c111.1,4,200.3,95.6,200.4,207.6
		c0,0.1,0,0.1,0,0.2v104c0,0.1,0,0.1,0,0.2C423.9,420.7,348.6,496,256,496S88.1,420.7,88,328.1c0-0.1,0-0.1,0-0.2V144
		C88,135.2,95.1,128,103.9,128L103.9,128z"/>
	<path d="M256,480c83.8,0,152-68.2,152-152c0-83.8-68.2-152-152-152s-152,68.2-152,152C104,411.8,172.2,480,256,480z M256,192
		c75,0,136,61,136,136s-61,136-136,136s-136-61-136-136C120,253,181,192,256,192z"/>
	<path d="M168,368c4.4,0,8-3.6,8-8v-4.7l10.3,10.3c1.6,1.6,3.6,2.3,5.7,2.3s4.1-0.8,5.7-2.3c3.1-3.1,3.1-8.2,0-11.3L179.3,336
		l18.3-18.3c3.1-3.1,3.1-8.2,0-11.3s-8.2-3.1-11.3,0L176,316.7V312c0-4.4-3.6-8-8-8s-8,3.6-8,8v48C160,364.4,163.6,368,168,368
		L168,368z"/>
	<path d="M232,368c8.5,0,16.5-4.6,20.8-12c2.2-3.8,0.9-8.7-2.9-10.9c-3.8-2.2-8.7-0.9-10.9,2.9c-1.4,2.5-4.1,4-6.9,4
		c-4.4,0-8-3.6-8-8v-16c0-4.4,3.6-8,8-8c2.9,0,5.5,1.5,6.9,4c2.2,3.8,7.1,5.1,10.9,3c3.8-2.2,5.2-7.1,3-10.9
		c-4.3-7.4-12.2-12.1-20.8-12.1c-13.2,0-24,10.8-24,24v16C208,357.2,218.8,368,232,368L232,368z"/>
	<path d="M264.9,367.4c1,0.4,2,0.6,3.1,0.6c3.1,0,6.1-1.9,7.4-4.9L280,352h16l4.7,11.1c1.3,3.1,4.3,4.9,7.4,4.9c1,0,2.1-0.2,3.1-0.6
		c4.1-1.7,6-6.4,4.3-10.5l-20.2-48c-0.1-0.2-0.3-0.3-0.4-0.5c-0.4-0.7-0.8-1.4-1.4-2c-0.5-0.5-1.1-0.8-1.6-1.1
		c-0.3-0.2-0.6-0.5-0.9-0.6c-0.1,0-0.2,0-0.3-0.1c-0.9-0.3-1.8-0.5-2.8-0.5c-0.6,0-1.2,0.2-1.8,0.4c-0.4,0.1-0.8,0.1-1.2,0.2
		c-0.4,0.2-0.6,0.5-1,0.7c-0.5,0.3-1.1,0.6-1.6,1.1c-0.5,0.5-0.9,1.2-1.2,1.8c-0.2,0.3-0.4,0.5-0.5,0.8l-19.8,48
		C258.9,361,260.9,365.7,264.9,367.4L264.9,367.4z M286.6,336l1.3-3.2l1.4,3.2H286.6z"/>
	<path d="M332,368h24c4.4,0,8-3.6,8-8s-3.6-8-8-8h-16v-40c0-4.4-3.6-8-8-8s-8,3.6-8,8v48C324,364.4,327.6,368,332,368z"/>
</g>
</svg>
