<?xml version="1.0" encoding="utf-8"?>
<!-- Generator: Adobe Illustrator 24.1.3, SVG Export Plug-In . SVG Version: 6.00 Build 0)  -->
<svg version="1.1" id="Capa_1" xmlns="http://www.w3.org/2000/svg" xmlns:xlink="http://www.w3.org/1999/xlink" x="0px" y="0px"
	 viewBox="0 0 512 512" style="enable-background:new 0 0 512 512;" xml:space="preserve" fill="#0c4ca3">
<g>
	<g>
		<path d="M472.8,39.3c-0.1-0.1-0.3-0.3-0.4-0.4c0,0,0,0,0,0c-66.1-65.4-187-45.7-273.1,40.4c-12.9,12.9-24.5,26.7-34.6,41.3
			c-51.4-7.6-96.7,5.2-127.8,36.3c-0.1,0.1-0.2,0.2-0.4,0.4c0,0,0,0-0.1,0.1c-62.3,63-42.5,189.9,42.9,275.3
			c86.5,86.5,213.5,104.6,275.7,42.4c0.1-0.1,0.1-0.2,0.2-0.2c0,0,0.1-0.1,0.1-0.1c30.8-31.1,43.5-76.2,35.9-127.4
			c14.6-10.2,28.4-21.8,41.3-34.6C519.2,226.1,538.6,105.1,472.8,39.3z M220.5,100.6C287.2,33.9,375,12.7,430.9,44.8l-0.7,0.2
			c-33.3,11.3-62.8,30.9-85.2,56.6c-21.4,24.4-36.4,54.4-43.7,87c-31.6-28.6-67.7-49.5-104.8-60.7
			C203.8,118.3,211.8,109.2,220.5,100.6z M100.5,411.5c-62.9-62.9-87.8-154.4-58-211.9c23,67.6,80.9,118.3,151,132.1
			c60.4,12,109.8,55.7,129,114.2l4.6,14C274.1,502.4,171.1,482.1,100.5,411.5z M349.7,432.7c-23.5-66.8-80.7-116.6-150.4-130.4
			c-59.6-11.8-108.8-54.9-128.4-112.5L64.8,172c55.1-45.3,154.9-23.1,226.6,48.5c34.7,34.7,61.7,79.7,69.7,127.9
			C366.5,380.7,362.4,409.8,349.7,432.7z M384.1,315.4c-10.8-35.8-30.7-70.7-57.9-101.6c1.3-4.8,2.5-9.6,3.4-14.4
			c12-60.3,52.1-106.3,110.3-126l17.8-6.1c45.1,54.5,25.9,151.9-46.4,224.2C402.7,300.1,393.6,308.1,384.1,315.4z"/>
	</g>
</g>
</svg>
