<svg xmlns="http://www.w3.org/2000/svg" width="17.978" height="18" viewBox="0 0 17.978 18">
  <path id="Forma_1" data-name="Forma 1" d="M498.764,7053.3c-3.876-3.9-5.218-6.66-4.634-9.53a5.6,5.6,0,0,1,1.761-3.224,1.931,1.931,0,0,1,1.357-.556,1.834,1.834,0,0,1,1.316.546l2.6,2.612a1.927,1.927,0,0,1-.034,2.712l-1.013,1.019a12.444,12.444,0,0,0,2.124,2.93,12.243,12.243,0,0,0,2.916,2.136l1.011-1.018a1.938,1.938,0,0,1,1.382-.578,1.844,1.844,0,0,1,1.314.54l2.6,2.616a1.985,1.985,0,0,1,.007,2.669,4.279,4.279,0,0,1-3.27,1.8,3.387,3.387,0,0,1-.379.018C506.788,7057.994,503.093,7057.655,498.764,7053.3Zm-2.111-11.937-.028.03-.034.025a4.419,4.419,0,0,0-1.367,2.578c-.5,2.448.756,4.915,4.329,8.511,4.026,4.048,7.344,4.363,8.265,4.363a2.416,2.416,0,0,0,.25-.01,3.173,3.173,0,0,0,2.531-1.389.884.884,0,0,0,.071-1.173l-2.6-2.614a.738.738,0,0,0-.526-.213.833.833,0,0,0-.593.25l-1.073,1.081a.9.9,0,0,1-.678.315,1.03,1.03,0,0,1-.482-.129,12.836,12.836,0,0,1-5.643-5.681.923.923,0,0,1,.1-1.068l.02-.02,1.144-1.151a.8.8,0,0,0,.035-1.125l-2.6-2.616a.741.741,0,0,0-.526-.213A.843.843,0,0,0,496.652,7041.366Zm10.339,6.378a3.355,3.355,0,0,0-2.622-2.653.56.56,0,0,1,.128-1.112,4.409,4.409,0,0,1,2.366,1.24,4.465,4.465,0,0,1,1.236,2.4.559.559,0,0,1-.494.618.377.377,0,0,1-.062,0A.557.557,0,0,1,506.992,7047.745Zm2.257-.593a5.309,5.309,0,0,0-4.357-4.409.561.561,0,0,1,.128-1.114,6.421,6.421,0,0,1,5.339,5.4.561.561,0,0,1-.494.62c-.021,0-.041,0-.06,0A.558.558,0,0,1,509.248,7047.151Z" transform="translate(-493.999 -7039.993)" fill="#ff6363"/>
</svg>
