<?xml version="1.0" encoding="utf-8"?>
<!-- Generator: Adobe Illustrator 24.1.3, SVG Export Plug-In . SVG Version: 6.00 Build 0)  -->
<svg version="1.1" id="Layer_1" xmlns="http://www.w3.org/2000/svg" xmlns:xlink="http://www.w3.org/1999/xlink" x="0px" y="0px"
	 viewBox="0 0 512 512" style="enable-background:new 0 0 512 512;" xml:space="preserve" fill='#ff6363'>
<path d="M506.7,161c-2.1-9.5-16.8-6.2-14.6,3.3c1.4,6.4,2.5,13,3.3,19.8c-68.6,5.1-116.2,21.1-139.5,30.8
	c10.4-28.4,22.7-55.5,36.8-80.6c9.5-3.8,46.2-17.9,84.5-25c1,3.7,2.1,7.5,3.3,11.4c2.9,9.3,17.2,4.8,14.3-4.5
	c-10.9-35-13-64.6-6.4-90.5c1.2-4.3,3-9.8,5.9-14c3.2-4.7-0.1-11.4-5.8-11.7c-6.8-0.9-18.9,3.8-25.1,5.5
	C367,32,279.4,98,247.4,195.5c-46-18.9-87.7-18.9-125.1-18.9c-35.3,0-74.6,0.9-100.3-27.7c-3.9-4.4-11.4-2.5-12.8,3.1
	c-0.7,2.6-16.2,63.3-5,130.2c1.6,9.6,16.4,7.1,14.8-2.5c-1.2-6.9-2-13.8-2.6-20.6c30.2-17.5,61.3-10.3,66.8-8.8
	c20.4,13.4,44.7,25.8,72.4,37c-32.6,1.2-77.8,9-124.9,35.9c-0.8-2-1.5-4-2.2-6.1c-3.2-9.2-17.4-4.2-14.2,4.9
	c15.3,43.9,45.6,80.3,86.8,102c40,21,83.7,27.4,127.8,34.2c39.3,6.1,77.3,15.5,100.7,50.5c3.3,4.9,11,4.1,13.2-1.4
	c0.7-1.8,15-37.8,21-86c82.4-27.4,141.3-93.5,146.8-181.7C513.1,208.7,511.9,183.8,506.7,161L506.7,161z M309.7,393.5
	c-7.7-14.7-16.4-28.3-26.2-40.6c-2.7-7.4-20.5-59.8,0.6-120.2c25.9,18.9,45.2,45.2,55.8,75.4C319.4,337.1,312.1,369.6,309.7,393.5z
	 M208.8,292.3c-4.5-8.8-22.2-46.6-18.8-97.1c28.6,4.4,56.4,14,81.2,29c-15.6,41.7-13.8,79.9-9.4,105
	C246,314.1,228.3,301.7,208.8,292.3L208.8,292.3z M404.9,113.8c25.1-40,50.2-67.1,67.1-82.9c-3.6,19.5-3,40.6,1.8,63.9
	C447.1,99.8,421.8,107.8,404.9,113.8z M420.1,36.7c12.7-5.5,25.7-10.2,38.7-14.2c-17.7,17-42.8,44.7-67.8,85.1
	c-4.1-24.3-5-42.1-4.8-54.1C397.1,47.4,408.4,41.8,420.1,36.7z M360.9,69.6c3.4-2.4,6.9-4.7,10.5-7c0.4,15.3,2.4,36.6,8.1,64.6
	c-14.9,26.7-28,55.4-38.8,85.6c-20.4-31.6-31.5-68.3-36.8-90.4C319.7,102.7,338.9,85,360.9,69.6L360.9,69.6z M292.4,137.9
	c7.1,25.8,20.1,62.3,42.3,92.7c-2.5,7.7-4.9,15.5-7.1,23.5c-17.6-22.6-40.8-39.9-66.4-52.4C268.3,179.3,279,157.6,292.4,137.9
	L292.4,137.9z M72.6,224.2c-23.3-18.6-35.4-35.8-41.8-48.6c12.6,7.7,26.4,11.7,41.3,13.8C69.8,202.3,70.7,214.4,72.6,224.2
	L72.6,224.2z M18.5,184.6c7,13.4,19.3,30.2,40.6,48c-12.6,0.2-28,2.5-43.7,10.2C14.6,220.3,16.4,199.9,18.5,184.6z M92.3,238.4
	c-2.4-5.9-9.5-25.8-5.2-47.6c29.3,1.8,58.7-0.4,88,2.5c-2.9,39.5,6.1,71.6,13.4,90.3C155.1,271.4,122.2,257.9,92.3,238.4z
	 M36.7,337.1c43.1-25,84.6-32.5,112.3-34.3c28.1-1.9,47.9,1.6,52,2.4c20.9,10,39.6,23.5,56.1,40.3c-11.2-1.4-26.4-2.6-44.3-2.1
	c-35.1,0.9-88,8.7-143.3,39.6C56.1,369.9,45.1,354.6,36.7,337.1L36.7,337.1z M81.4,393.5c50.8-27.3,99-34.3,131.3-35.2
	c30.7-0.9,52.9,3.4,59.9,5c11.1,14.2,20.9,30.3,29.1,47.9c-7.7-3-17.6-6-29.7-8c-27.9-4.6-73.1-4.5-131.4,21.6
	c-10.8-3.7-21.7-8.3-32.6-14C98.4,405.8,89.6,400,81.4,393.5L81.4,393.5z M219.3,441.7c-17.6-2.6-36.3-5.3-55.7-10.1
	c46.2-17.5,82.1-17.4,105.1-13.7c22.7,3.6,37.1,11.3,41.9,14.1c6.8,18.1,11.1,34.7,13.8,47.5C295.4,452.8,258.2,447.4,219.3,441.7
	L219.3,441.7z M351.2,389.9c-1,32.4-7.4,62.1-13,82.8c-2.9-13.2-7.4-29.6-14.2-47.5c-0.5-7.3-3-55.5,21.5-98.1
	C350,346.4,352,367.4,351.2,389.9L351.2,389.9z M467,328c-28.2,36.4-57.6,61.1-101.6,76.9c1.8-23.7,1.1-47.7-3.2-71.1
	c27.7-5.9,67-12.8,111.2-16C471.8,320.8,469.1,325.3,467,328L467,328z M495.7,238.5c0,0,0,0.1,0,0.1c-1.5,23.6-6.3,44.6-14.5,63.7
	c-48.7,2.9-92.1,10.4-122.1,16.9c-4.4-17.2-11.1-33.7-20.3-48.9c3.2-12.1,6.7-24.1,10.4-35.8c5.2-2.6,18.3-8.6,38.3-14.9
	c23.2-7.4,60.6-16.7,109.1-20.4C497.1,211.1,496.8,224.1,495.7,238.5L495.7,238.5z"/>
</svg>
