<svg id="Capa_1" enable-background="new 0 0 512 512" height="512" viewBox="0 0 512 512" width="512" xmlns="http://www.w3.org/2000/svg" fill="#ff6363"><g><path d="m361 416.811v-55.811h-38.787l-30-30h-42.426l-38.787 38.787v42.426l40.949 40.949zm-120-34.598 21.213-21.213h17.574l30 30h21.213v4.188l-70.949 23.65-19.051-19.051z"/><path d="m256 512c140.96 0 256-115.049 256-256 0-140.96-115.049-256-256-256-140.959 0-256 115.049-256 256 0 140.959 115.05 256 256 256zm221.494-301c2.951 14.547 4.506 29.595 4.506 45s-1.555 30.453-4.506 45h-37.953l-48.541-24.271v-14.516l23.85-23.849 55.639-27.364zm-447.494 45c0-105.625 72.842-194.547 170.926-219.201l12.161 49.515 57.913 28.957v35.729h35.729l21.02 42.038-14.711 14.71-63.746-31.873-32.563 65.125h-65.729v51.213l23.787 23.787-11.749 11.749-60-30-33.251 33.251h-26.978c-8.285-23.481-12.809-48.72-12.809-75zm52.213 105 26.749-26.749 60 30 48.251-48.251-36.213-36.213v-8.787h54.271l27.438-54.875 56.254 28.127 45.289-45.29-38.981-77.962h-24.271v-24.271l-62.087-31.044-8.41-34.239c8.372-.944 16.876-1.446 25.497-1.446 98.337 0 182.191 63.139 213.191 151h-5.68l-66.36 32.636-36.151 36.151v45.484l71.459 35.719 36.732.01c-31 87.861-114.854 151-213.191 151-86.735 0-162.201-49.122-200.076-121z"/></g></svg>