<svg xmlns="http://www.w3.org/2000/svg" width="18.003" height="18.001" viewBox="0 0 18.003 18.001">
  <path id="Forma_1" data-name="Forma 1" d="M503.006,7071.987a9,9,0,1,0,9,9A9.012,9.012,0,0,0,503.006,7071.987Zm4.841,3.445a.119.119,0,0,0,.074.031.124.124,0,0,0,.117-.17,2.419,2.419,0,0,0-.143-.287h.019l.022-.009c.174.333.255.5.3.6h0a.123.123,0,0,0-.105,0,.116.116,0,0,0-.068.079c-.038-.037-.093-.094-.181-.193a.161.161,0,0,0-.037-.028A.083.083,0,0,0,507.846,7075.432Zm-10.292-.5a.107.107,0,0,0,.081-.021c.013-.006.027-.013.043-.019a.119.119,0,0,0,.1.1c-.01.011-.019.024-.031.036a.125.125,0,0,0-.027.111.124.124,0,0,0,.079.086h.006c-1.114,1.017-1.623,1.48-1.89,1.744A8.181,8.181,0,0,1,497.554,7074.933Zm-2.7,6.055a8.1,8.1,0,0,1,.174-1.667.123.123,0,0,0,.075.027h.1c-.044.176-.082.334-.116.493a.2.2,0,0,0,0,.056c.024.233.057.551.1.787a.121.121,0,0,0,.056.084,5.239,5.239,0,0,1,1.819,2.259,1.854,1.854,0,0,0-.365,1.392,1.338,1.338,0,0,0,.744.791c.028.112.057.218.09.328a.156.156,0,0,0,.029.051,4.4,4.4,0,0,0,1.355.948,3.277,3.277,0,0,0,1.688,2.239.032.032,0,0,1,.008.007A8.124,8.124,0,0,1,494.852,7080.987Zm15.4,3.316c-.05.173-.107.352-.166.521a9.423,9.423,0,0,0-.509.965l-.021.047a8.2,8.2,0,0,1-6.551,3.305,8.443,8.443,0,0,1-1.059-.068.1.1,0,0,0-.029-.054l-.042-.052a.117.117,0,0,0-.041-.031l-.141-.07c-.091-.134-.09-.14-.069-.236a.019.019,0,0,1,0-.006h.1a.148.148,0,0,0,.11-.06.124.124,0,0,0,0-.125.075.075,0,0,0-.009-.013.159.159,0,0,1,.036-.012,1.313,1.313,0,0,0,.332-.143l.082.023a.125.125,0,0,0,.106-.021l.141-.106a.121.121,0,0,0,.05-.1,1.525,1.525,0,0,0-.037-.538c.894-.544,1.01-.628.853-1.019.536-.584.558-.622.582-1.036,0-.051.005-.112.006-.156a.122.122,0,0,0-.118-.126,3.539,3.539,0,0,1-2.054-.78.111.111,0,0,0-.1-.033,1.02,1.02,0,0,0-.566.213l-.045-.032.093-.1a.119.119,0,0,0,.02-.139c-.316-.624-.411-.693-.723-.734-.38-.052-.38-.052-.492-.415a.123.123,0,0,0-.031-.052l-.109-.114a3.1,3.1,0,0,0-1.1-.611.125.125,0,0,0-.057-.008l-.218.023c-.2-.123-.3-.182-.491-.3a.127.127,0,0,0-.152.014c-.126.125-.183.147-.236.147a1.688,1.688,0,0,1-.612-.333,1.49,1.49,0,0,0-.527-.57l-.032-.08c.013-.119.028-.236.045-.351a.8.8,0,0,0,.2-.391.123.123,0,0,0-.018-.1.117.117,0,0,0-.09-.052.553.553,0,0,0-.487.241c-.03-.013-.058-.026-.086-.041a2.409,2.409,0,0,1-.048-.733c.113-.065.156-.136.37-.534a.837.837,0,0,1,.655.2.118.118,0,0,0,.128.005c.034-.017.073-.038.115-.063l.031.1a.124.124,0,0,0,.109.085.582.582,0,0,0,.134,0,3.2,3.2,0,0,0,.015.437,3.11,3.11,0,0,1,.016.4.12.12,0,0,0,.131.127.369.369,0,0,0-.073.021.321.321,0,0,0-.3-.215,1.839,1.839,0,0,1-.274-.024.125.125,0,0,0-.122.057.121.121,0,0,0,0,.134.866.866,0,0,0,.536.331h0c.13.223.182.243.5.318a.092.092,0,0,0,.029,0,.124.124,0,0,0,.082-.032l.086-.076a.125.125,0,0,0,.042-.112.12.12,0,0,0-.072-.092.685.685,0,0,1-.1-.119c-.093-.125-.154-.207-.275-.207-.012,0-.027.008-.039.009a.11.11,0,0,0,.051-.023l.392-.327a.122.122,0,0,0,.033-.145l-.1-.228a1.37,1.37,0,0,1,.058-.17.108.108,0,0,0,.044-.018,1.707,1.707,0,0,1,.257-.134,2.386,2.386,0,0,0,.247-.125,1.9,1.9,0,0,1,.309.041.124.124,0,0,0,.117-.043,6.064,6.064,0,0,1,.449-.523,11.108,11.108,0,0,1,2.144-.682.126.126,0,0,0,.09-.123.123.123,0,0,0-.1-.117.213.213,0,0,1-.124-.05l.113-.122a.122.122,0,0,0,.029-.118.016.016,0,0,0,0,0c.059,0,.125,0,.194,0a.108.108,0,0,0,.046.06,1.1,1.1,0,0,1,.237.237.132.132,0,0,0,.094.075h.021a.122.122,0,0,0,.092-.041l.184-.207a.121.121,0,0,0,.025-.121.128.128,0,0,0-.095-.082l-.053-.01c.1-.071.246-.194.5-.414a.123.123,0,0,0-.088-.217,1.04,1.04,0,0,0-.213.029h0a.122.122,0,0,0,0-.111l-.1-.184a.881.881,0,0,1,.085-.179.131.131,0,0,0,.01-.1.123.123,0,0,0-.063-.073.765.765,0,0,0-.517-.066c-.223-.376-.254-.411-.434-.444a.122.122,0,0,0-.1.025.124.124,0,0,0-.046.093c0,.037,0,.077,0,.118l-.131-.012a.116.116,0,0,0-.1.042c-.165.189-.352.365-.532.538-.136.131-.276.265-.409.405a3.013,3.013,0,0,1-.178-.751l.542-.276c.5-.317.709-.447.825-.447a.436.436,0,0,1,.16.05.126.126,0,0,0-.026.072.128.128,0,0,0,.113.122c.093.009.19.015.288.022l.109.206a.124.124,0,0,0,.22,0c.151-.3.236-.315.253-.315.048,0,.127.082.157.112a.124.124,0,0,0,.089.037.153.153,0,0,0,.091-.041.6.6,0,0,0,.179-.332l0-.041a.119.119,0,0,0-.042-.109.109.109,0,0,0-.068-.026,1,1,0,0,1,0-.128.123.123,0,0,0-.051-.108c-.092-.064-.091-.084-.089-.117a.122.122,0,0,0-.111-.126.807.807,0,0,1-.144-.053.564.564,0,0,0-.158-.051l-.033-.073a.133.133,0,0,0-.079-.067.136.136,0,0,0-.1.015l-.007-.006a.131.131,0,0,0-.134-.029,1.191,1.191,0,0,0-.147.057c0-.037,0-.07,0-.112a.118.118,0,0,0-.033-.071.166.166,0,0,0,.035-.024.12.12,0,0,0,.042-.084c0-.041,0-.1.006-.14a.13.13,0,0,0-.06-.1h0a.623.623,0,0,0,.079-.06c.07-.055.075-.092.1-.23a.12.12,0,0,0-.06-.117.137.137,0,0,0-.141,0,2.116,2.116,0,0,1-.339.19.124.124,0,0,0,.062.238l.109-.019a.189.189,0,0,0,.021.015l-.092.046a.163.163,0,0,0-.061.067.406.406,0,0,1-.025.046.124.124,0,0,0-.086-.032.131.131,0,0,0,0-.1.142.142,0,0,0-.106-.081.626.626,0,0,0-.091,0h-.032a.123.123,0,0,0-.131-.027,1.679,1.679,0,0,0-.263.12.119.119,0,0,0-.054.135l.009.036a.128.128,0,0,0,.087.088h0a.1.1,0,0,0,.019.041.6.6,0,0,0-.057.018l-.033-.03a.247.247,0,0,0-.108-.2.12.12,0,0,0-.146-.012.125.125,0,0,0-.059.094.216.216,0,0,1-.025.038.3.3,0,0,0-.074.167.36.36,0,0,0,.008.093.152.152,0,0,1,0,.039v.006a.875.875,0,0,0-.145.045.121.121,0,0,0-.059.171.385.385,0,0,0,.134.142l-.059.026a.1.1,0,0,0-.031-.013l-.073-.018-.011-.091a.123.123,0,0,0-.065-.094.135.135,0,0,0-.067-.014.162.162,0,0,0-.038-.018l-.033-.009.013-.034a.122.122,0,0,0,0-.1.12.12,0,0,0-.072-.066c-.07-.022-.135-.047-.2-.07a.129.129,0,0,0-.09,0,.891.891,0,0,1-.143.048l.054-.082a.117.117,0,0,0,.013-.111.127.127,0,0,0-.084-.077.623.623,0,0,0-.282-.018.134.134,0,0,0-.013-.033.125.125,0,0,0,.007-.12.127.127,0,0,0-.043-.05.117.117,0,0,0-.023-.105.12.12,0,0,0-.156-.031c-.095.052-.113.062-.286.146l-.014-.008a8.125,8.125,0,0,1,8.495-.118c-.023.014-.03.015-.039.015a1.833,1.833,0,0,1-.34-.1.13.13,0,0,0-.126.024.776.776,0,0,1-.15.108.135.135,0,0,0-.058.088.124.124,0,0,0,.03.1,3.025,3.025,0,0,1,.5.685c-.048.255.022.31.42.634a.142.142,0,0,0,.16,0l.048-.036a.125.125,0,0,0,.06.015h.01a.156.156,0,0,0-.013.041c-.016.118,0,.155.177.369a.122.122,0,0,1-.016.016.122.122,0,0,0-.046.1v.087a1.393,1.393,0,0,1-.241-.111.2.2,0,0,1-.036-.035l-.205-.284a.121.121,0,0,0-.164-.031.964.964,0,0,0-.151.12.12.12,0,0,0-.034.115.4.4,0,0,0,.091.18.574.574,0,0,0-.214.283.176.176,0,0,0,.017.132l.119-.039-.1.079.024.046.119-.039-.1.079s.023.042.024.042.023.044.023.046l.048-.015c0,.012,0,.023,0,.036l-.022.017.024.047.011.022a.122.122,0,0,0,.109.064.127.127,0,0,0,.027,0,.123.123,0,0,0,.1-.113c.008-.127.033-.135.057-.143a.123.123,0,0,0,.054-.048v.011a.117.117,0,0,0,.039.084l.063.063a.127.127,0,0,0,.019.091.121.121,0,0,0,.087.054c.061.006.069.008.319.388-.089.014-.245.032-.526.047a.121.121,0,0,0-.1.06.12.12,0,0,0-.006.115c.054.115.114.225.174.337.044.081.089.16.13.244a.122.122,0,0,0-.022.122l.062.175s.02.054.022.057a.118.118,0,0,0,.063.071.111.111,0,0,0,.094.006,8.519,8.519,0,0,0,.848-.32.125.125,0,0,0,.065-.161c-.045-.1-.091-.207-.137-.31a.75.75,0,0,0,.112-.332.539.539,0,0,1,.066-.224l.069-.028c.281.287.378.375.532.375a.348.348,0,0,0,.1-.015c.03.044.05.07.115.153a.118.118,0,0,0,.163.023.127.127,0,0,0,.04-.164c-.018-.035-.035-.068-.056-.105.081.064.173.141.28.228a.134.134,0,0,0,.122.019.121.121,0,0,0,.076-.1.436.436,0,0,0,.006-.093l.01.009a.122.122,0,0,0,.135.013l.018-.013c.065.137.128.277.187.416-.07.031-.186.078-.38.158a.121.121,0,0,0-.076.122.447.447,0,0,1-.017.176,2.58,2.58,0,0,1-.539-.447.126.126,0,0,0-.153-.021,4.856,4.856,0,0,1-1.171.5.125.125,0,0,0-.087.086.12.12,0,0,0,0,.077.149.149,0,0,0-.019.005l0,.126-.054-.114a.14.14,0,0,0-.09.081,8.478,8.478,0,0,1-1.13,2.131.124.124,0,0,0,.022.165l.182.155c.112.8.11.809-.008,1.062a.124.124,0,0,0,.031.145c1.13,1.009,1.13,1.009,1.4,1.087a.123.123,0,0,0,.139-.053l.128-.2c.323-.075.63-.161.915-.252a2.172,2.172,0,0,1,.527-.132c.061,0,.077.018.086.025A4.265,4.265,0,0,1,510.252,7084.3Zm-11.01-6.619a.141.141,0,0,0-.132-.086l-.1,0h-.048a.109.109,0,0,0,.011-.053.126.126,0,0,0-.059-.105.728.728,0,0,1-.085-.062.469.469,0,0,0-.051-.039c.138-.109.182-.082.4-.007a1.194,1.194,0,0,0,.245.531c-.047.03-.093.062-.137.094a1.1,1.1,0,0,1-.292.168.7.7,0,0,0,.064-.194l.157-.108A.116.116,0,0,0,499.242,7077.684Zm1.514-2.6a1.232,1.232,0,0,0,.486-.256l.048-.039a.128.128,0,0,0,.027-.039c-.225.413-.247.418-.377.418h-.047a.122.122,0,0,0-.107-.082A.2.2,0,0,1,500.756,7075.082Zm.575-.358a.125.125,0,0,0,0-.039h.018A.325.325,0,0,1,501.331,7074.724Zm.322.194,0,.018a.126.126,0,0,0,.108.1h.014a.119.119,0,0,0,.044-.014l.013.026h0a1.857,1.857,0,0,1-.189.082,1.1,1.1,0,0,1-.007-.215,1.3,1.3,0,0,0,0-.228.169.169,0,0,0-.1-.109c-.013,0-.025,0-.037,0l.034-.043a.117.117,0,0,0,.072.041l.037,0c.008,0,.017-.005.025-.006A.8.8,0,0,0,501.653,7074.918Zm.409.364-.058-.161s-.009-.005-.01-.01.006,0,.008,0a.12.12,0,0,1,.056-.009.265.265,0,0,1,.171.061,3.012,3.012,0,0,0-.263.371c-.028,0-.051.009-.077.012l.142-.127A.125.125,0,0,0,502.062,7075.282Zm5.29,1.1-.043-.09c.015.011.023.02.04.031Zm-8.372,5.055a.123.123,0,0,1-.02.157l-.2.183a.136.136,0,0,1-.084.033h-.01a.132.132,0,0,1-.087-.047c-.149-.186-.162-.2-.193-.2a.615.615,0,0,0-.072,0,.125.125,0,0,1-.131-.091c-.074-.29-.057-.4.2-.471l.049-.011a.12.12,0,0,1,.089.011l.26.145a.112.112,0,0,1,.043.04Zm6.432-6.375a3.239,3.239,0,0,1-1.164.926.242.242,0,0,1-.051.152.225.225,0,0,1-.17.073h-.012a.4.4,0,0,1-.266-.118.3.3,0,0,0-.093-.06.125.125,0,0,1-.092-.1.552.552,0,0,0-.044-.132.6.6,0,0,1-.064-.289.145.145,0,0,1,.013-.048l.027-.048c.038-.078.078-.165.118-.261-.028-.035-.057-.071-.083-.1a.126.126,0,0,1-.026-.11.584.584,0,0,0,.022-.149c-.027-.035-.052-.072-.079-.108a1.129,1.129,0,0,0-.141-.176.946.946,0,0,0-.165-.043.107.107,0,0,1-.074-.036l-.031.043a.135.135,0,0,1-.083.048.122.122,0,0,1-.093-.028l-.013-.008a1.083,1.083,0,0,1-.355.146.131.131,0,0,1-.039.007.115.115,0,0,1-.06-.017.507.507,0,0,0-.115-.055.126.126,0,0,1-.106-.133.114.114,0,0,1,.126-.113h0c.142,0,.217-.038.435-.207a.514.514,0,0,1-.079-.2.117.117,0,0,1,.027-.1.121.121,0,0,1,.095-.045.907.907,0,0,0,.165-.031.916.916,0,0,1,.276-.035.16.16,0,0,1,.055-.025.2.2,0,0,1,.182.087s0,.01.006.014.016-.019.029-.02a.134.134,0,0,1,.039,0,.144.144,0,0,1,.063-.1.122.122,0,0,1,.114-.01,1.74,1.74,0,0,0,.187.078h.046l.071,0a.2.2,0,0,1,.075.006.2.2,0,0,1,.055-.073.173.173,0,0,1,.11-.039.458.458,0,0,1,.058.008.124.124,0,0,1,.081-.067l.07-.02a.152.152,0,0,1,.1.006l.178.091a.113.113,0,0,1,.056.06.122.122,0,0,1,.134-.011.124.124,0,0,1,.065.109,1.378,1.378,0,0,0,.359.522.119.119,0,0,1,.035.054l.013.038c.012.038.026.081.039.116a.12.12,0,0,1-.027.127.1.1,0,0,1-.011.012l.048.069a.121.121,0,0,1,.007.127.136.136,0,0,1-.041.045.069.069,0,0,1,.014.022A.129.129,0,0,1,505.411,7075.067Zm.757.266s0,.031,0,.032c0,.187-.129.277-.494.338l-.02,0a.125.125,0,0,1-.071-.025l-.043-.03-.153-.106a.123.123,0,0,1,0-.2.786.786,0,0,1,.295-.116,1.056,1.056,0,0,1,.379-.009A.123.123,0,0,1,506.168,7075.333Z" transform="translate(-494.004 -7071.987)" fill="#ff6363"/>
</svg>
