<svg xmlns="http://www.w3.org/2000/svg" id="prefix__arrow_drop_down-24px_1_" width="20.001" height="20.002" data-name="arrow_drop_down-24px (1)" viewBox="0 0 20.001 20.002">
    <path id="prefix__Path_29" d="M0 0h20v20H0z" data-name="Path 29" style="fill:none"/>
    <path id="prefix__instagram-brands" d="M8.261 35.885a4.272 4.272 0 1 0 4.272 4.272 4.266 4.266 0 0 0-4.272-4.272zm0 7.05a2.778 2.778 0 1 1 2.778-2.778 2.783 2.783 0 0 1-2.778 2.778zM13.7 35.71a1 1 0 1 1-1-1 .994.994 0 0 1 1 1zm2.83 1.011a4.932 4.932 0 0 0-1.346-3.492 4.964 4.964 0 0 0-3.484-1.345c-1.376-.078-5.5-.078-6.875 0a4.957 4.957 0 0 0-3.495 1.342 4.948 4.948 0 0 0-1.346 3.492c-.078 1.376-.078 5.5 0 6.875a4.932 4.932 0 0 0 1.346 3.492 4.97 4.97 0 0 0 3.492 1.346c1.376.078 5.5.078 6.875 0a4.932 4.932 0 0 0 3.492-1.346 4.964 4.964 0 0 0 1.346-3.492c.077-1.376.077-5.493-.001-6.872zm-1.777 8.348a2.812 2.812 0 0 1-1.584 1.584c-1.1.435-3.7.335-4.912.335s-3.819.1-4.912-.335a2.812 2.812 0 0 1-1.584-1.584c-.435-1.1-.335-3.7-.335-4.912s-.1-3.819.335-4.912a2.812 2.812 0 0 1 1.584-1.584c1.1-.435 3.7-.335 4.912-.335s3.819-.1 4.912.335a2.812 2.812 0 0 1 1.584 1.584c.435 1.1.335 3.7.335 4.912s.104 3.819-.331 4.912z" transform="translate(1.742 -30.158)" style="fill:#fff"/>
</svg>
