<svg xmlns="http://www.w3.org/2000/svg" xmlns:xlink="http://www.w3.org/1999/xlink" width="22.001" height="22" viewBox="0 0 22.001 22">
  <defs>
    <pattern id="pattern" preserveAspectRatio="none" width="100%" height="100%" viewBox="0 0 0 0">
      <image/>
    </pattern>
  </defs>
  <g id="Icon" transform="translate(-1276 -2224)">
    <g id="Icon-2" data-name="Icon" transform="translate(1276 2224)">
      <rect id="Layer_2" data-name="Layer 2" fill="url(#pattern)"/>
      <path id="Icon-3" data-name="Icon" d="M15.583,18.792a3.2,3.2,0,0,1,.163-1.009l-9.9-4.952a3.209,3.209,0,1,1,0-3.655l9.9-4.955a3.216,3.216,0,1,1,.412.82l-9.9,4.956a3.214,3.214,0,0,1,0,2.016l9.9,4.952a3.207,3.207,0,1,1-.573,1.829Zm.917,0a2.292,2.292,0,1,0,.255-1.05l-.012.027-.015.027A2.279,2.279,0,0,0,16.5,18.792ZM.917,11a2.292,2.292,0,0,0,4.338,1.031l0-.006,0-.006A2.289,2.289,0,0,0,5.27,10L5.26,9.981l-.01-.02A2.292,2.292,0,0,0,.917,11ZM16.5,3.208A2.292,2.292,0,1,0,18.791.917,2.295,2.295,0,0,0,16.5,3.208Z" fill="#5ec79c"/>
      <path id="Icon-4" data-name="Icon" d="M15.583,18.792a3.2,3.2,0,0,1,.163-1.009l-9.9-4.952a3.209,3.209,0,1,1,0-3.655l9.9-4.955a3.216,3.216,0,1,1,.412.82l-9.9,4.956a3.214,3.214,0,0,1,0,2.016l9.9,4.952a3.207,3.207,0,1,1-.573,1.829Zm.917,0a2.292,2.292,0,1,0,.255-1.05l-.012.027-.015.027A2.279,2.279,0,0,0,16.5,18.792ZM.917,11a2.292,2.292,0,0,0,4.338,1.031l0-.006,0-.006A2.289,2.289,0,0,0,5.27,10L5.26,9.981l-.01-.02A2.292,2.292,0,0,0,.917,11ZM16.5,3.208A2.292,2.292,0,1,0,18.791.917,2.295,2.295,0,0,0,16.5,3.208Z" fill="#5ec79c"/>
    </g>
    <g id="Stroke_Effect" data-name="Stroke Effect" fill="none" stroke-linejoin="round">
      <path d="M1291.584,2242.792a3.178,3.178,0,0,1,.163-1.01l-9.9-4.952a3.209,3.209,0,1,1,0-3.656l9.9-4.955a3.221,3.221,0,1,1,.412.819l-9.9,4.955a3.216,3.216,0,0,1,0,2.016l9.9,4.953a3.207,3.207,0,1,1-.573,1.829Zm1.171-1.05c0,.009-.007.018-.012.027s-.01.018-.015.027a2.3,2.3,0,1,0,.027-.054ZM1276.916,2235a2.292,2.292,0,0,0,4.339,1.031l0-.006,0-.005a2.29,2.29,0,0,0,.009-2.021l-.009-.018a.2.2,0,0,1-.01-.021,2.292,2.292,0,0,0-4.334,1.04Zm15.583-7.791a2.292,2.292,0,1,0,2.292-2.292A2.294,2.294,0,0,0,1292.5,2227.208Z" stroke="none"/>
      <path d="M 1294.791381835938 2246.00048828125 C 1293.022827148438 2246.00048828125 1291.583740234375 2244.560546875 1291.583740234375 2242.7919921875 C 1291.583740234375 2242.439208984375 1291.640380859375 2242.099853515625 1291.74658203125 2241.7822265625 L 1281.843017578125 2236.830322265625 C 1281.262573242188 2237.662841796875 1280.298583984375 2238.208251953125 1279.208740234375 2238.208251953125 C 1277.440185546875 2238.208251953125 1276.000244140625 2236.76904296875 1276.000244140625 2234.999755859375 C 1276.000244140625 2233.231201171875 1277.440185546875 2231.791259765625 1279.208740234375 2231.791259765625 C 1280.300415039063 2231.791259765625 1281.26611328125 2232.33935546875 1281.845703125 2233.174560546875 L 1291.74658203125 2228.219970703125 C 1291.641357421875 2227.9013671875 1291.583740234375 2227.561279296875 1291.583740234375 2227.20849609375 C 1291.583740234375 2225.43994140625 1293.022827148438 2224 1294.791381835938 2224 C 1296.560791015625 2224 1298.000732421875 2225.43994140625 1298.000732421875 2227.20849609375 C 1298.000732421875 2228.97705078125 1296.560791015625 2230.4169921875 1294.791381835938 2230.4169921875 C 1293.702392578125 2230.4169921875 1292.738403320313 2229.87158203125 1292.158813476563 2229.0390625 L 1282.256103515625 2233.994384765625 C 1282.360473632813 2234.311279296875 1282.417236328125 2234.648681640625 1282.417236328125 2234.999755859375 C 1282.417236328125 2235.3525390625 1282.359619140625 2235.69287109375 1282.254272460938 2236.010498046875 L 1292.156982421875 2240.963134765625 C 1292.736572265625 2240.129638671875 1293.701416015625 2239.58349609375 1294.791381835938 2239.58349609375 C 1296.560791015625 2239.58349609375 1298.000732421875 2241.0224609375 1298.000732421875 2242.7919921875 C 1298.000732421875 2244.560546875 1296.560791015625 2246.00048828125 1294.791381835938 2246.00048828125 Z M 1294.791381835938 2240.499755859375 C 1293.90576171875 2240.499755859375 1293.13623046875 2241.004638671875 1292.754638671875 2241.74169921875 C 1292.7509765625 2241.750732421875 1292.747436523438 2241.759765625 1292.742919921875 2241.7685546875 C 1292.738403320313 2241.777587890625 1292.733032226563 2241.78662109375 1292.727661132813 2241.795654296875 C 1292.581787109375 2242.09716796875 1292.499877929688 2242.4345703125 1292.499877929688 2242.7919921875 C 1292.499877929688 2244.0546875 1293.527709960938 2245.083251953125 1294.791381835938 2245.083251953125 C 1296.054931640625 2245.083251953125 1297.083618164063 2244.0546875 1297.083618164063 2242.7919921875 C 1297.083618164063 2241.52734375 1296.054931640625 2240.499755859375 1294.791381835938 2240.499755859375 Z M 1279.208740234375 2232.708251953125 C 1277.946044921875 2232.708251953125 1276.916381835938 2233.737060546875 1276.916381835938 2234.999755859375 C 1276.916381835938 2236.263427734375 1277.946044921875 2237.291259765625 1279.208740234375 2237.291259765625 C 1280.1015625 2237.291259765625 1280.877319335938 2236.778076171875 1281.25537109375 2236.03125 C 1281.256225585938 2236.029296875 1281.257080078125 2236.026611328125 1281.258056640625 2236.02490234375 C 1281.258911132813 2236.02294921875 1281.259887695313 2236.021240234375 1281.2607421875 2236.01953125 C 1281.414672851563 2235.712646484375 1281.500122070313 2235.365966796875 1281.500122070313 2234.999755859375 C 1281.500122070313 2234.640625 1281.417358398438 2234.30126953125 1281.269775390625 2233.9990234375 C 1281.26708984375 2233.99267578125 1281.263427734375 2233.9873046875 1281.2607421875 2233.98095703125 C 1281.257080078125 2233.9736328125 1281.253540039063 2233.967529296875 1281.250854492188 2233.960205078125 C 1280.870971679688 2233.2177734375 1280.098876953125 2232.708251953125 1279.208740234375 2232.708251953125 Z M 1294.791381835938 2224.916259765625 C 1293.527709960938 2224.916259765625 1292.499877929688 2225.94482421875 1292.499877929688 2227.20849609375 C 1292.499877929688 2228.47119140625 1293.527709960938 2229.499755859375 1294.791381835938 2229.499755859375 C 1296.054931640625 2229.499755859375 1297.083618164063 2228.47119140625 1297.083618164063 2227.20849609375 C 1297.083618164063 2225.94482421875 1296.054931640625 2224.916259765625 1294.791381835938 2224.916259765625 Z" stroke="none" fill="#5ba000"/>
    </g>
  </g>
</svg>
