<svg xmlns="http://www.w3.org/2000/svg" width="22.001" height="22" viewBox="0 0 22.001 22">
  <g id="Stroke_Effect" data-name="Stroke Effect" transform="translate(-777 -2805)" fill="none" stroke-linejoin="round">
    <path d="M792.583,2823.792a3.179,3.179,0,0,1,.163-1.01l-9.9-4.952a3.209,3.209,0,1,1,0-3.656l9.9-4.955a3.221,3.221,0,1,1,.412.819l-9.9,4.954a3.22,3.22,0,0,1,0,2.017l9.9,4.953a3.207,3.207,0,1,1-.573,1.829Zm1.171-1.05c0,.009-.007.018-.012.027l-.015.027a2.3,2.3,0,1,0,.027-.054ZM777.916,2816a2.292,2.292,0,0,0,4.339,1.031.018.018,0,0,1,0-.006l0-.006a2.29,2.29,0,0,0,.009-2.021l-.009-.018a.167.167,0,0,1-.01-.022,2.292,2.292,0,0,0-4.334,1.041Zm15.583-7.791a2.292,2.292,0,1,0,2.291-2.292A2.294,2.294,0,0,0,793.5,2808.209Z" stroke="none"/>
    <path d="M 795.7908325195313 2827.0009765625 C 794.0223388671875 2827.0009765625 792.5831909179688 2825.560791015625 792.5831909179688 2823.79248046875 C 792.5831909179688 2823.439453125 792.639892578125 2823.100341796875 792.74609375 2822.782470703125 L 782.842529296875 2817.830810546875 C 782.2620239257813 2818.663330078125 781.298095703125 2819.208740234375 780.2081909179688 2819.208740234375 C 778.439697265625 2819.208740234375 776.9996948242188 2817.76953125 776.9996948242188 2816.000244140625 C 776.9996948242188 2814.230712890625 778.439697265625 2812.791748046875 780.2081909179688 2812.791748046875 C 781.2999267578125 2812.791748046875 782.265625 2813.33984375 782.84521484375 2814.175048828125 L 792.74609375 2809.220458984375 C 792.6408081054688 2808.90185546875 792.5831909179688 2808.561767578125 792.5831909179688 2808.208984375 C 792.5831909179688 2806.4404296875 794.0223388671875 2805.00048828125 795.7908325195313 2805.00048828125 C 797.5602416992188 2805.00048828125 799.000244140625 2806.4404296875 799.000244140625 2808.208984375 C 799.000244140625 2809.977294921875 797.5602416992188 2811.41748046875 795.7908325195313 2811.41748046875 C 794.7018432617188 2811.41748046875 793.7379150390625 2810.8720703125 793.1583251953125 2810.03955078125 L 783.255615234375 2814.993896484375 C 783.3600463867188 2815.311767578125 783.416748046875 2815.648193359375 783.416748046875 2816.000244140625 C 783.416748046875 2816.35302734375 783.359130859375 2816.693115234375 783.2538452148438 2817.010986328125 L 793.156494140625 2821.963623046875 C 793.7361450195313 2821.130126953125 794.700927734375 2820.583984375 795.7908325195313 2820.583984375 C 797.5602416992188 2820.583984375 799.000244140625 2822.02294921875 799.000244140625 2823.79248046875 C 799.000244140625 2825.560791015625 797.5602416992188 2827.0009765625 795.7908325195313 2827.0009765625 Z M 795.7908325195313 2821.5 C 794.9052124023438 2821.5 794.1357421875 2822.0048828125 793.7540893554688 2822.7421875 C 793.7505493164063 2822.7509765625 793.7469482421875 2822.760009765625 793.742431640625 2822.76904296875 C 793.7379150390625 2822.777099609375 793.7325439453125 2822.787109375 793.7271118164063 2822.796142578125 C 793.581298828125 2823.09765625 793.4993896484375 2823.43505859375 793.4993896484375 2823.79248046875 C 793.4993896484375 2825.05517578125 794.5272216796875 2826.083740234375 795.7908325195313 2826.083740234375 C 797.054443359375 2826.083740234375 798.0831298828125 2825.05517578125 798.0831298828125 2823.79248046875 C 798.0831298828125 2822.52783203125 797.054443359375 2821.5 795.7908325195313 2821.5 Z M 780.2081909179688 2813.708740234375 C 778.9454956054688 2813.708740234375 777.9158935546875 2814.737548828125 777.9158935546875 2816.000244140625 C 777.9158935546875 2817.263671875 778.9454956054688 2818.29150390625 780.2081909179688 2818.29150390625 C 781.1010131835938 2818.29150390625 781.8768310546875 2817.778564453125 782.2548217773438 2817.031494140625 C 782.2557373046875 2817.02880859375 782.256591796875 2817.026123046875 782.2575073242188 2817.025390625 C 782.2584228515625 2817.0234375 782.2593383789063 2817.021728515625 782.2601928710938 2817.019775390625 C 782.4141235351563 2816.712890625 782.4996337890625 2816.366455078125 782.4996337890625 2816.000244140625 C 782.4996337890625 2815.64111328125 782.4168090820313 2815.3017578125 782.2692260742188 2814.999267578125 C 782.2665405273438 2814.9931640625 782.262939453125 2814.987548828125 782.2601928710938 2814.9814453125 C 782.256591796875 2814.97412109375 782.2529907226563 2814.9677734375 782.2503051757813 2814.959716796875 C 781.8705444335938 2814.21826171875 781.0983276367188 2813.708740234375 780.2081909179688 2813.708740234375 Z M 795.7908325195313 2805.91650390625 C 794.5272216796875 2805.91650390625 793.4993896484375 2806.9453125 793.4993896484375 2808.208984375 C 793.4993896484375 2809.4716796875 794.5272216796875 2810.500244140625 795.7908325195313 2810.500244140625 C 797.054443359375 2810.500244140625 798.0831298828125 2809.4716796875 798.0831298828125 2808.208984375 C 798.0831298828125 2806.9453125 797.054443359375 2805.91650390625 795.7908325195313 2805.91650390625 Z" stroke="none" fill="#652825"/>
  </g>
</svg>
