<?xml version="1.0" encoding="utf-8"?>
<!-- Generator: Adobe Illustrator 24.1.3, SVG Export Plug-In . SVG Version: 6.00 Build 0)  -->
<svg version="1.1" id="Capa_1" xmlns="http://www.w3.org/2000/svg" xmlns:xlink="http://www.w3.org/1999/xlink" x="0px" y="0px"
	 viewBox="0 0 384.1 384.1" style="enable-background:new 0 0 384.1 384.1;" xml:space="preserve" fill='#333333'>
<g>
	<g>
		<path d="M379.4,114.1c-1.4-5.9-6-10.4-11.9-11.8c-3.3-0.8-77.1-17.4-151.4,18.5c-27-77.1-90.9-116.6-93.8-118.4
			c-5.1-3.1-11.5-3.1-16.6,0C101.4,4.9,0,67.8,0,190.1c0,122.2,101.4,185,105.7,187.6c1.7,1.1,3.6,1.6,5.5,1.9
			c3.5,0.8,21.2,4.5,46.8,4.5c43.1,0,107.8-10.6,161.5-63.6C407.2,234.2,380.6,118.9,379.4,114.1z M114.3,106.1c-8.8,0-16,7.2-16,16
			v32.2l-14.2-13.7c-6.4-6.1-16.5-6-22.6,0.4c-6.2,6.4-6,16.5,0.4,22.6l36.4,35.2v32.6L85,216.3c-5.8-6.7-15.9-7.3-22.6-1.5
			s-7.3,15.9-1.5,22.6l36.7,42c0,0.2-0.1,0.4-0.1,0.5c-0.1,0.8-0.3,1.6-0.4,2.4c-0.5,3-0.9,6-1.2,8.9c-0.1,0.7-0.2,1.4-0.2,2.1
			c-0.2,2.3-0.5,4.5-0.7,6.7c-0.1,0.9-0.2,1.9-0.2,2.8c-0.2,2.1-0.3,4.2-0.4,6.3c0,0.7-0.1,1.4-0.1,2.1c-0.1,2.6-0.2,5.2-0.2,7.7
			c0,0.7,0,1.4,0,2.1c0,1.8,0,3.6,0.1,5.4c0,0.4,0,0.8,0,1.2C67.7,302.4,32,256,32,190.1c0-84.9,59.8-137.8,82-154.6
			c17.3,12.9,56.8,47.2,73.8,101.5l-0.1,0.1c-4.6,3.2-9.1,6.6-13.4,10.1c-1.1,0.9-2.2,1.8-3.2,2.7c-4.3,3.6-8.5,7.4-12.5,11.3
			c-3.2,3.1-6.2,6.3-9.1,9.6c-0.9,1-1.7,1.9-2.5,2.9c-2.1,2.4-4.1,4.8-6,7.3c-0.7,0.9-1.5,1.9-2.2,2.8c-2.5,3.3-4.9,6.5-7.1,9.8
			c-0.2,0.3-0.4,0.6-0.6,0.9c-0.3,0.4-0.5,0.8-0.7,1.1v-73.4C130.3,113.3,123.1,106.1,114.3,106.1z M297.1,297.8
			c-52,51.2-117.8,55.7-153.5,53.7c13-16.7,33.2-41.3,57.8-67.5c9.3-3.8,41.3-15.9,80.5-19.4c8.8-0.8,15.3-8.5,14.5-17.4
			c-0.8-8.8-8.4-15.3-17.4-14.5c-10.4,0.9-20.3,2.4-29.5,4.1c16.8-15,34.6-29.2,52.8-41.5c7.3-4.9,9.3-14.9,4.3-22.2
			c-4.9-7.3-14.9-9.3-22.2-4.3c-26.5,17.8-51.8,39.3-74.7,61.1c-0.1-3.4-0.3-6.9-0.7-10.6c-0.9-8.8-8.6-15.2-17.5-14.3
			c-8.8,0.9-15.2,8.7-14.3,17.5c2.4,24.2-3.1,40.7-5.2,45.8c-18.5,20.1-34.2,38.9-46.2,53.8c0-0.3,0-0.5,0-0.7c0-0.3,0-0.7,0-1.1
			c0-2.6,0.1-5.2,0.2-8c0-0.4,0-0.7,0-1.1c0.1-2.9,0.3-5.9,0.6-8.9c0-0.6,0.1-1.2,0.2-1.8c0.3-3.1,0.6-6.3,1.1-9.5
			c0-0.4,0.1-0.7,0.2-1.1c0.4-2.6,0.9-5.3,1.4-7.9c0.3-1.1,0.6-2.2,0.6-3.4c0.6-3.2,1.4-6.4,2.2-9.7c0.2-0.7,0.4-1.4,0.5-2
			c0.9-3.5,2-7,3.2-10.6c0.1-0.3,0.2-0.6,0.3-0.8c1.2-3.4,2.4-6.8,3.8-10.3c0.2-0.6,0.5-1.2,0.7-1.8c1.5-3.5,3.1-7.1,4.9-10.6
			c0.3-0.7,0.7-1.4,1.1-2.1c1.9-3.6,3.8-7.3,6-10.9c0.1-0.1,0.2-0.3,0.3-0.4c2.1-3.5,4.5-7,7-10.5c0.4-0.6,0.9-1.3,1.3-1.9
			c2.5-3.5,5.2-6.9,8.1-10.3c0.5-0.6,1.1-1.3,1.7-1.9c3.1-3.5,6.3-7,9.8-10.5c5.1-5,10.5-9.7,16.1-14.1c0.7-0.5,1.4-1,2-1.5
			c2.2-1.6,4.3-3.3,6.6-4.8c2.9-2,5.9-3.9,9-5.8l0,0l0,0C268.4,125.6,327,129,350,132C353.9,159.3,358.1,237.7,297.1,297.8z"/>
	</g>
</g>
</svg>
