<svg xmlns="http://www.w3.org/2000/svg" width="15.001" height="20.998" viewBox="0 0 15.001 20.998">
  <path id="Forma_1" data-name="Forma 1" d="M499.566,7006.352a35.5,35.5,0,0,1-2.374-3.479C496,7000.9,494,6997.224,494,6994.756a7.5,7.5,0,1,1,15,0c0,2.459-2.014,6.144-3.215,8.121a36.536,36.536,0,0,1-2.374,3.475c-1.194,1.518-1.6,1.643-1.912,1.643S500.764,7007.868,499.566,7006.352Zm-4.376-11.6c0,1.518,1.032,4.129,2.833,7.167a23.139,23.139,0,0,0,3.468,4.766,24.456,24.456,0,0,0,3.468-4.773c1.812-3.041,2.849-5.653,2.849-7.16a6.313,6.313,0,1,0-12.619,0Zm1.887,0a4.425,4.425,0,1,1,4.422,4.576A4.508,4.508,0,0,1,497.077,6994.756Zm1.189,0a3.235,3.235,0,1,0,3.233-3.347A3.3,3.3,0,0,0,498.266,6994.756Z" transform="translate(-493.999 -6986.995)" fill="#ff6363"/>
</svg>
