<svg xmlns="http://www.w3.org/2000/svg" width="18" height="16.006" viewBox="0 0 18 16.006">
  <path id="Icon" d="M1511,6820a.9.9,0,0,0,.624.814l6.594,2.058.242,4.692a.463.463,0,0,0,.3.41.41.41,0,0,0,.147.026.441.441,0,0,0,.338-.155l2.331-2.665,3.3,2.361a.846.846,0,0,0,.5.164.894.894,0,0,0,.863-.728l2.743-14.429a.474.474,0,0,0-.154-.447.435.435,0,0,0-.455-.072l-16.852,7.08A.919.919,0,0,0,1511,6820Zm8.3,6.4-.151-2.959,1.689,1.206Zm6.073.361-6.014-4.3,8.433-8.422Zm1.494-13.092-8.338,8.328-6.587-2.055Z" transform="translate(-1511 -6811.991)" fill="#fff"/>
</svg>
