<svg xmlns="http://www.w3.org/2000/svg" width="27" height="30.999" viewBox="0 0 27 30.999">
  <path id="Color_Overlay" data-name="Color Overlay" d="M840.141,2691.2l-5.22-4.023A15.162,15.162,0,0,1,829,2675.167v-8.654a1.182,1.182,0,0,1,1.174-1.176l1.587-.011c.612,0,1.212-.033,1.783-.086a.462.462,0,1,1,.086.921c-.6.055-1.223.085-1.862.089l-1.587.012a.252.252,0,0,0-.25.251v8.654a14.242,14.242,0,0,0,5.561,11.277l5.22,4.024a2.907,2.907,0,0,0,1.788.608,2.94,2.94,0,0,0,1.788-.61l5.22-4.022a.467.467,0,0,1,.652.082.46.46,0,0,1-.082.648l-5.22,4.023a3.872,3.872,0,0,1-4.718,0Zm1.688-1.834a.671.671,0,1,1,.671.667A.668.668,0,0,1,841.829,2689.364Zm9.11-3.525a.46.46,0,0,1-.005-.654,14.214,14.214,0,0,0,4.135-10.018v-8.654a.252.252,0,0,0-.25-.251l-1.587-.012c-5.616-.041-8.26-2.069-9.137-2.938a9.533,9.533,0,0,1-.91-1.048.842.842,0,0,0-.68-.339h0a.852.852,0,0,0-.685.339,9.064,9.064,0,0,1-5.89,3.537.462.462,0,1,1-.209-.9,9.137,9.137,0,0,0,4.525-2.243,9.025,9.025,0,0,0,.83-.948A1.775,1.775,0,0,1,842.5,2661h0a1.767,1.767,0,0,1,1.424.713,8.6,8.6,0,0,0,.821.944c.8.79,3.214,2.632,8.485,2.669l1.587.011a1.182,1.182,0,0,1,1.174,1.176v8.654a15.133,15.133,0,0,1-4.4,10.664.46.46,0,0,1-.332.14A.466.466,0,0,1,850.939,2685.839ZM837,2681.073a2.513,2.513,0,0,1-.908-.615s-1.993-1.067-.805-3.641l.8-.632a1.709,1.709,0,0,1,.373-.184,1.32,1.32,0,0,1,.439-.074v-2.184a3.508,3.508,0,0,1,2.685-3.5,2.773,2.773,0,1,1,5.543-.006,3.5,3.5,0,0,1,2.718,3.509v2.184a1.337,1.337,0,0,1,.439.074,2.4,2.4,0,0,1,1.221,3.02,3.251,3.251,0,0,1-1.765,2.053,5.406,5.406,0,0,1-10.738,0Zm-.194-3.911a.726.726,0,0,0-.292.2c-.005.008-.013.014-.019.022a1.377,1.377,0,0,0-.185,1.26c.192.637.794,1.286,1.216,1.31a.585.585,0,0,1,.532.537,4.317,4.317,0,0,0,8.626,0,.583.583,0,0,1,.532-.536c.421-.024,1.024-.673,1.216-1.311a1.172,1.172,0,0,0-.5-1.48c-.073-.026-.1-.034-.194.114a.541.541,0,0,1-.632.228.608.608,0,0,1-.392-.582v-.934a4.723,4.723,0,0,1-.476.024,4.865,4.865,0,0,0-7.738.146,4.442,4.442,0,0,1-.476-.025v.789a.607.607,0,0,1-.392.582.54.54,0,0,1-.631-.228c-.066-.1-.1-.129-.135-.129A.2.2,0,0,0,836.806,2677.162Zm1.219-3.419v1.162a3.712,3.712,0,0,0,.476.031,3.966,3.966,0,0,0,3.337-1.945.669.669,0,0,1,1.143-.021,3.912,3.912,0,0,0,3.258,1.82,3.656,3.656,0,0,0,.475-.032v-1.016a2.263,2.263,0,0,0-2.166-2.345h-4.356A2.263,2.263,0,0,0,838.024,2673.743Zm2.692-3.565h3.273a1.637,1.637,0,0,0-3.273,0Zm.135,11.363a.637.637,0,0,1,.211-.833.542.542,0,0,1,.77.227,1.005,1.005,0,0,0,1.815,0,.542.542,0,0,1,.769-.227.637.637,0,0,1,.211.833,2.094,2.094,0,0,1-3.776,0Zm3.513-3.225a.678.678,0,1,1,.676.731A.7.7,0,0,1,844.364,2678.316Zm-4.6,0a.678.678,0,1,1,.676.731A.705.705,0,0,1,839.762,2678.316Zm12.837-10.128a.671.671,0,1,1,.671.666A.668.668,0,0,1,852.6,2668.189Zm-21.619,0a.671.671,0,1,1,.67.666A.668.668,0,0,1,830.98,2668.189Zm11.362-3.277a.666.666,0,1,1,.153.018A.688.688,0,0,1,842.341,2664.912Z" transform="translate(-829 -2661)" fill="#0c4ca3"/>
</svg>
