<?xml version="1.0" encoding="utf-8"?>
<!-- Generator: Adobe Illustrator 24.1.3, SVG Export Plug-In . SVG Version: 6.00 Build 0)  -->
<svg version="1.1" id="Layer_1" xmlns="http://www.w3.org/2000/svg" xmlns:xlink="http://www.w3.org/1999/xlink" x="0px" y="0px"
	 viewBox="0 0 512 512" style="enable-background:new 0 0 512 512;" xml:space="preserve" fill='#0c4ca3'>
<g>
	<g>
		<path d="M492.6,416.2c-35.4-29.6-139.7-117-187.5-159.7c25.9-23.7,62.1-59,97.4-93.3c40.3-39.3,78.5-76.4,95.7-91
			C507,64.8,512,53.9,512,42.4c0-14.4-7.5-27.2-20.1-34.2c-12.5-7-27.3-6.6-39.4,0.9C413.2,33.5,256,146.3,256,170.7
			c0,7.2-0.3,15.6-2.9,25.2c-11.8-20.2-18.5-38.6-18.5-46.5c0-15.2-51.6-64.6-153.3-147C77.2-1.1,71-0.7,67.1,3.1l-64,64
			c-3.9,3.9-4.2,10-0.8,14.3c82.3,101.7,131.8,153.3,147,153.3c9.1,0,31.8,8.8,55.2,23.9c-47.3,42-143.7,122.9-185.2,157.6
			C7.1,426.4,0,441.6,0,457.7C0,487.7,24.3,512,54.3,512c16.1,0,31.3-7.1,41.6-19.4c35.6-42.6,119-141.9,160.2-188
			c42.5,47.6,130.4,152.5,160.2,188c10.3,12.3,25.4,19.4,41.6,19.4c29.9,0,54.3-24.3,54.3-54.3C512,441.6,505,426.5,492.6,416.2z
			 M277.3,172.5c11.2-17.5,121.4-105,186.4-145.3c5.5-3.4,12.2-3.6,17.8-0.4c5.7,3.2,9.1,9,9.1,15.6c0,5.2-2.3,10.1-6.2,13.5
			c-17.9,15.1-56.2,52.4-96.9,92c-35.8,34.9-72.6,70.7-98.3,94.2c-1.6-1.5-3.3-3.1-4.4-4.3c-6.3-6.3-12-13.2-17.3-20.2
			C276.4,199.2,277.3,183.6,277.3,172.5z M79.5,478.9c-6.2,7.5-15.4,11.8-25.2,11.8c-18.2,0-32.9-14.8-32.9-32.9
			c0-9.8,4.3-19,11.7-25.2c42.6-35.7,143.1-120,189.3-161.3c5.3,4.3,10.6,8.7,15.5,13.6c1,1,2.4,2.5,3.7,3.9
			C200.7,334.4,115.6,435.7,79.5,478.9z M457.7,490.7c-9.8,0-19-4.3-25.2-11.7c-45.3-54.1-153.4-182.9-179.7-209.2
			c-32.1-32.1-80.8-56.2-101.4-56.2c-0.1,0-0.2,0-0.3,0C138.6,208.7,78.3,140.8,25,75.4l7-7l99.1,99.1c2.1,2.1,4.8,3.1,7.5,3.1
			c2.7,0,5.5-1,7.5-3.1c4.2-4.2,4.2-10.9,0-15.1L47.1,53.3l6.3-6.3l99.1,99.1c2.1,2.1,4.8,3.1,7.5,3.1s5.5-1,7.5-3.1
			c4.2-4.2,4.2-10.9,0-15.1L68.4,32l7-7c65.4,53.3,133.3,113.5,137.9,124.3c0,22.2,24.1,71.2,56.5,103.5
			c26.3,26.3,155,134.4,209.2,179.7c7.4,6.2,11.7,15.4,11.7,25.2C490.7,475.9,475.9,490.7,457.7,490.7z"/>
	</g>
</g>
</svg>
