<?xml version="1.0" encoding="utf-8"?>
<!-- Generator: Adobe Illustrator 24.1.3, SVG Export Plug-In . SVG Version: 6.00 Build 0)  -->
<svg version="1.1" id="regular" xmlns="http://www.w3.org/2000/svg" xmlns:xlink="http://www.w3.org/1999/xlink" x="0px" y="0px"
	 viewBox="0 0 512 512" style="enable-background:new 0 0 512 512;" xml:space="preserve" fill='#0c4ca3'>
<path d="M256,512C114.8,512,0,397.2,0,256S114.8,0,256,0c44.4,0,88.1,11.6,126.5,33.4c7.7,4.4,10.4,14.1,6,21.8
	c-4.4,7.7-14.2,10.3-21.8,6C333.1,42.1,294.8,32,256,32C132.5,32,32,132.5,32,256s100.5,224,224,224s224-100.5,224-224
	c0-41.4-11.4-81.8-32.9-116.9c-4.6-7.5-2.3-17.4,5.3-22c7.5-4.6,17.4-2.3,22,5.3C499,162.5,512,208.7,512,256
	C512,397.2,397.2,512,256,512z"/>
<path d="M160,277.3c-29.4,0-53.3-23.9-53.3-53.3c0-8.8,7.2-16,16-16s16,7.2,16,16c0,11.8,9.6,21.3,21.3,21.3
	c11.8,0,21.3-9.6,21.3-21.3c0-8.8,7.2-16,16-16c8.8,0,16,7.2,16,16C213.3,253.4,189.4,277.3,160,277.3z"/>
<path d="M352,277.3c-29.4,0-53.3-23.9-53.3-53.3c0-8.8,7.2-16,16-16c8.8,0,16,7.2,16,16c0,11.8,9.6,21.3,21.3,21.3
	s21.3-9.6,21.3-21.3c0-8.8,7.2-16,16-16s16,7.2,16,16C405.3,253.4,381.4,277.3,352,277.3z"/>
<path d="M325.3,394.7H186.7c-8.8,0-16-7.2-16-16c0-8.8,7.2-16,16-16h138.7c8.8,0,16,7.2,16,16C341.3,387.5,334.2,394.7,325.3,394.7z
	"/>
<path d="M496,85.3h-53.3c-6.5,0-12.3-3.9-14.8-9.9s-1.1-12.9,3.5-17.4l26-26h-14.7c-8.8,0-16-7.2-16-16s7.2-16,16-16H496
	c6.5,0,12.3,3.9,14.8,9.9c2.5,6,1.1,12.9-3.5,17.4l-26,26H496c8.9,0,16,7.2,16,16S504.8,85.3,496,85.3L496,85.3z"/>
<path d="M389.3,192H336c-6,0-11.5-3.3-14.2-8.7c-2.7-5.3-2.3-11.8,1.2-16.6l35.2-49.4H336c-8.8,0-16-7.2-16-16s7.2-16,16-16h53.3
	c6,0,11.5,3.3,14.2,8.7c2.7,5.3,2.3,11.8-1.2,16.6L367.1,160h22.2c8.8,0,16,7.2,16,16S398.2,192,389.3,192L389.3,192z"/>
</svg>
