<?xml version="1.0" encoding="utf-8"?>
<!-- Generator: Adobe Illustrator 24.1.3, SVG Export Plug-In . SVG Version: 6.00 Build 0)  -->
<svg version="1.1" id="Capa_1" xmlns="http://www.w3.org/2000/svg" xmlns:xlink="http://www.w3.org/1999/xlink" x="0px" y="0px"
	 viewBox="0 0 512 512" style="enable-background:new 0 0 512 512;" xml:space="preserve" fill='#0c4ca3'>
<g>
	<g>
		<path d="M506.4,172.9L457.2,10.5C455.3,4.3,449.6,0,443.1,0H68.9c-6.5,0-12.2,4.3-14.1,10.5L5.6,172.9c-0.4,1.4-0.6,2.8-0.6,4.3
			c0,28.3,16,52.9,39.4,65.3v254.7c0,8.2,6.6,14.8,14.8,14.8h393.8c8.2,0,14.8-6.6,14.8-14.8V242.5c23.4-12.4,39.4-37,39.4-65.3
			C507.1,175.8,506.9,174.3,506.4,172.9z M221.5,482.5h-88.6V369.2h88.6V482.5z M438.2,482.5H251.1v-128c0-8.2-6.6-14.8-14.8-14.8
			H118.2c-8.2,0-14.8,6.6-14.8,14.8v128H73.8V250.9c0.2,0,0.5,0,0.7,0c0.3,0,0.6,0,0.8,0c1.1,0.1,2.2,0.1,3.4,0.1
			c9.8,0,19.2-1.9,27.7-5.4c12.5-5.1,23.3-13.5,31.3-24.2c8,10.7,18.8,19.1,31.3,24.2c8.6,3.5,17.9,5.4,27.7,5.4s19.2-1.9,27.7-5.4
			c12.5-5.1,23.3-13.5,31.3-24.2c8,10.7,18.8,19.1,31.3,24.2c8.6,3.5,17.9,5.4,27.7,5.4s19.2-1.9,27.7-5.4
			c12.5-5.1,23.3-13.5,31.3-24.2c8,10.7,18.8,19.1,31.3,24.2c8.6,3.5,17.9,5.4,27.7,5.4c1.1,0,2.2,0,3.4-0.1c0.3,0,0.6,0,0.8,0
			c0.2,0,0.5,0,0.7,0L438.2,482.5L438.2,482.5z M446.1,219.6c-0.2,0.1-0.5,0.1-0.7,0.2c-0.4,0.1-0.8,0.2-1.2,0.3
			c-0.3,0.1-0.6,0.1-0.8,0.2c-0.4,0.1-0.7,0.2-1.1,0.3c-0.3,0.1-0.6,0.1-0.9,0.2c-0.4,0.1-0.8,0.1-1.1,0.2c-0.3,0-0.6,0.1-0.9,0.1
			c-0.4,0.1-0.8,0.1-1.2,0.1c-0.3,0-0.5,0.1-0.8,0.1c-0.4,0-0.9,0.1-1.4,0.1c-0.2,0-0.5,0-0.7,0c-0.7,0-1.4,0.1-2.1,0.1
			c-24.4,0-44.3-19.9-44.3-44.3c0-8.2-6.6-14.8-14.8-14.8s-14.8,6.6-14.8,14.8c0,24.4-19.9,44.3-44.3,44.3
			c-24.4,0-44.3-19.9-44.3-44.3c0-8.2-6.6-14.8-14.8-14.8c-8.2,0-14.8,6.6-14.8,14.8c0,24.4-19.9,44.3-44.3,44.3
			s-44.3-19.9-44.3-44.3c0-8.2-6.6-14.8-14.8-14.8s-14.8,6.6-14.8,14.8c0,24.4-19.9,44.3-44.3,44.3c-0.7,0-1.4,0-2.1-0.1
			c-0.2,0-0.5,0-0.7,0c-0.5,0-0.9-0.1-1.4-0.1c-0.3,0-0.5-0.1-0.8-0.1c-0.4,0-0.8-0.1-1.2-0.1c-0.3,0-0.6-0.1-0.9-0.1
			c-0.4-0.1-0.8-0.1-1.1-0.2c-0.3-0.1-0.6-0.1-0.9-0.2c-0.4-0.1-0.8-0.2-1.1-0.3c-0.3-0.1-0.6-0.1-0.8-0.2c-0.4-0.1-0.8-0.2-1.2-0.3
			c-0.2-0.1-0.5-0.1-0.7-0.2c-17.5-5.3-30.5-21.3-31.4-40.4L79.9,29.5h352.2l45.4,149.7C476.6,198.3,463.7,214.3,446.1,219.6z"/>
	</g>
</g>
<g>
	<g>
		<path d="M393.8,280.6h-98.5c-8.2,0-14.8,6.6-14.8,14.8v78.8c0,8.2,6.6,14.8,14.8,14.8h98.5c8.2,0,14.8-6.6,14.8-14.8v-78.8
			C408.6,287.2,402,280.6,393.8,280.6z M379.1,359.4h-68.9v-49.2h68.9V359.4z"/>
	</g>
</g>
</svg>
