<?xml version="1.0" encoding="utf-8"?>
<!-- Generator: Adobe Illustrator 24.1.3, SVG Export Plug-In . SVG Version: 6.00 Build 0)  -->
<svg version="1.1" id="Capa_1" xmlns="http://www.w3.org/2000/svg" xmlns:xlink="http://www.w3.org/1999/xlink" x="0px" y="0px"
	 viewBox="0 0 512 512" style="enable-background:new 0 0 512 512;" xml:space="preserve" fill='#0c4ca3'>
<g>
	<ellipse cx="222.2" cy="286" rx="11.1" ry="12.1"/>
	<ellipse cx="297.7" cy="286" rx="11.1" ry="12.1"/>
	<path d="M287.4,325.5c-4.4-2.8-10.1-1.1-12.6,3.8c-3,5.8-8.8,9.4-14.9,9.4c-6.1,0-11.8-3.6-14.9-9.4c-2.5-4.8-8.2-6.5-12.6-3.8
		c-4.4,2.8-6,8.9-3.5,13.7c6.3,12.1,18.2,19.6,31,19.6c12.8,0,24.6-7.5,31-19.6C293.4,334.4,291.9,328.3,287.4,325.5z"/>
	<path d="M137.7,261.2c-19.5,42.5,13.2,60.1,13.2,60.1c4.4,4.5,9.5,8.2,14.9,10.2c8.2,45.4,44.9,78.8,88.1,78.8s79.9-33.4,88.1-78.8
		c13.4-4.9,24.7-19.8,28.9-33.9l0,0c6.4-21.3-2.6-43.7-20-49.9c-1.9-0.7-4.4-1.2-7.2-1.2v-36.1c0-28.9-19.3-53.1-44.6-58
		c-1.1-26.3-21.1-47.3-45.5-47.3c-24.4,0-44.4,21.1-45.5,47.4c-25,5.1-44,29.1-44,57.9v36.1c-2.8,0-5.3,0.6-7.2,1.2
		c-2.2,0.8-4.2,1.8-6.1,3 M137.7,351.2 M253.6,125.4c13.9,0,25.4,11.5,26.8,26.2h-53.7C228.2,136.9,239.7,125.4,253.6,125.4z
		 M182.6,210.5c0-21.4,15.9-38.7,35.5-38.7h71.4c19.6,0,35.5,17.4,35.5,38.7v16.8c-2.6,0.3-5.2,0.5-7.8,0.5
		c-21.2,0-40.7-11-53.4-30.1c-2.2-3.3-5.7-5.2-9.5-5.1c-3.7,0.1-7.2,2.1-9.3,5.5c-12.5,20.1-32.9,32.1-54.7,32.1
		c-2.6,0-5.2-0.2-7.8-0.5L182.6,210.5L182.6,210.5z M324.6,321.9c-4.3,39-34.7,68.3-70.7,68.3c-36.1,0-66.5-29.4-70.7-68.3
		c-0.5-4.9-4.2-8.6-8.7-8.9c-6.9-0.4-16.8-11.1-19.9-21.6c-2.4-8-1-16.1,3-20.8c0.1-0.1,0.2-0.2,0.3-0.4c1.3-1.5,3-2.6,4.8-3.3
		c1.2-0.4,1.6-0.6,3.2,1.9c2.3,3.6,6.5,5.1,10.4,3.8c3.8-1.3,6.4-5.2,6.4-9.6v-13c2.6,0.3,5.2,0.4,7.8,0.4
		c24.9,0,48.3-12.1,64.4-32.9c16,19.2,38.8,30.5,62.5,30.5c2.6,0,5.2-0.1,7.8-0.4V263c0,4.4,2.6,8.3,6.4,9.6c3.8,1.3,8-0.2,10.4-3.8
		c1.6-2.4,2-2.3,3.2-1.9c7.7,2.7,11.4,13.7,8.2,24.5c-3.1,10.5-13,21.3-19.9,21.6C328.8,313.3,325.1,317,324.6,321.9z"/>
	<path d="M370.9,420.2l-85.6,66.4c-8.4,6.5-18.8,10.1-29.3,10.1c-10.7,0-20.9-3.5-29.3-10.1l-85.6-66.4
		c-28.2-21.9-51.5-50.5-67.2-82.6c-15.7-32.1-24-68-24-103.7V91c0-2.3,1.8-4.1,4.1-4.1l26-0.2c10.5-0.1,20.8-0.6,30.5-1.5
		c4.2-0.4,7.3-4.1,6.9-8.3c-0.4-4.2-4.1-7.3-8.3-6.9c-9.4,0.9-19.2,1.3-29.2,1.4l-26,0.2C43.2,71.7,34.6,80.4,34.6,91V234
		c0,38.1,8.8,76.2,25.6,110.4c16.7,34.2,41.5,64.6,71.5,87.9l85.6,66.4c11,8.5,24.8,13.3,38.7,13.3c13.9,0,27.7-4.7,38.7-13.3
		l85.6-66.4c3.3-2.6,3.9-7.4,1.3-10.7C379.1,418.3,374.3,417.7,370.9,420.2L370.9,420.2z"/>
	<path d="M458.2,71.6l-26-0.2C345.7,70.8,306,40.4,293,27.4c-4.8-4.8-9.3-10.1-13.5-15.6C274,4.3,265.4,0,256.1,0c0,0,0,0-0.1,0
		c-9.3,0-17.8,4.3-23.4,11.7c-4.1,5.5-8.7,10.7-13.6,15.7c-11.8,11.8-34.3,27.9-74.2,37c-4.1,0.9-6.7,5-5.7,9.1s5,6.7,9.1,5.7
		c43.4-10,68.3-27.9,81.6-41.1c5.4-5.4,10.5-11.3,15-17.3c2.7-3.6,6.8-5.6,11.2-5.6h0c4.4,0,8.5,2.1,11.1,5.6
		c4.6,6.1,9.6,11.9,14.9,17.3C296.5,52.5,339.9,86,432,86.7l26,0.2c2.3,0,4.1,1.9,4.1,4.1V234c0,35.7-8.3,71.6-24,103.7
		c-11.1,22.7-25.9,43.5-43.8,61.8c-3,3-2.9,7.8,0.1,10.8c1.5,1.5,3.4,2.2,5.4,2.2c2,0,3.9-0.8,5.4-2.3
		c19.1-19.4,34.8-41.5,46.6-65.7c16.7-34.2,25.6-72.4,25.6-110.4V91C477.4,80.4,468.8,71.7,458.2,71.6z"/>
	<g>
		<circle cx="256" cy="468.5" r="11"/>
	</g>
	<g>
		<ellipse transform="matrix(0.2298 -0.9732 0.9732 0.2298 144.729 290.665)" cx="256" cy="53.9" rx="11" ry="11"/>
	</g>
	<g>
		<circle cx="432.6" cy="118.7" r="11"/>
	</g>
	<g>
		<circle cx="78" cy="118.7" r="11"/>
	</g>
</g>
</svg>
