<?xml version="1.0" encoding="utf-8"?>
<!-- Generator: Adobe Illustrator 24.1.3, SVG Export Plug-In . SVG Version: 6.00 Build 0)  -->
<svg version="1.1" id="Capa_1" xmlns="http://www.w3.org/2000/svg" xmlns:xlink="http://www.w3.org/1999/xlink" x="0px" y="0px"
	 viewBox="0 0 512 512" style="enable-background:new 0 0 512 512;" xml:space="preserve" fill='#0c4ca3'>
<g>
	<g>
		<path d="M459.7,293.5c-3.5,0-7,0.5-10.4,1.4c-3.5,0.9-6.9,2.3-10,4.2l-36.2-13.8c1.9-9.6,2.9-19.4,2.9-29.3
			c0-29.8-8.6-58.2-24.9-82.7l55.3-55.3c5,1.4,10.2,2,15.5,2c33.1,0,60-26.9,60-60c0-33.1-26.9-60-60-60s-60,26.9-60,60
			c0,5.3,0.7,10.5,2,15.5l-55.3,55.3c-13.2-8.7-27.5-15.2-42.5-19.4l7.1-34.3c6.5-0.9,12.5-3.8,17.2-8.5c11.7-11.7,11.7-30.7,0-42.4
			c-5.7-5.7-13.2-8.8-21.2-8.8c-8,0-15.5,3.1-21.2,8.8c-5.7,5.7-8.8,13.2-8.8,21.2c0,8,3.1,15.5,8.8,21.2c1.7,1.7,3.6,3.2,5.7,4.5
			l-7.1,34.3c-6.8-0.9-13.7-1.4-20.6-1.4c-39.4,0-77.3,15.6-105.3,43.1L80,98c-1-21.1-18.6-38-40-38C17.9,60,0,77.9,0,100
			c0,22.1,17.9,40,40,40c3.7,0,7.2-0.5,10.7-1.4l70.8,51.1C111.3,210.2,106,232.9,106,256c0,12.7,1.6,25.3,4.8,37.4l-33.4,11
			c-4-5.2-9.5-8.9-16-10.6c-2.5-0.7-5.2-1-7.8-1c-13.5,0-25.5,9.1-29,22.2c-4.3,16,5.2,32.5,21.2,36.7c2.5,0.7,5.2,1,7.8,1
			c13.5,0,25.5-9.1,29-22.2c0.6-2.4,1-4.8,1-7.1l33.4-11c7.3,18.1,18.2,34.7,32.1,48.8L98,432c-21.1,1-38,18.6-38,40
			c0,22.1,17.9,40,40,40c22.1,0,40-17.9,40-40c0-3.7-0.5-7.2-1.4-10.7l51.1-70.8c20.5,10.1,43.3,15.4,66.3,15.4
			c26.5,0,51.7-6.9,73.8-19.3l30.2,46c-3.8,5-6.1,11.3-6.1,18.1c0,16.5,13.5,30,30,30c16.5,0,30-13.5,30-30s-13.5-30-30-30
			c-2.5,0-4.9,0.3-7.2,0.9l-30.2-46c15.4-11.7,28.7-26.5,38.8-43.7l36.2,13.8c5.3,16.4,20.7,27.8,38.1,27.7c3.5,0,7-0.5,10.4-1.4
			c10.3-2.8,18.9-9.4,24.3-18.6c5.3-9.3,6.8-20,4-30.4C493.6,305.7,477.7,293.5,459.7,293.5z M63.3,325.4c-1.2,4.4-5.1,7.4-9.6,7.4
			c-0.9,0-1.7-0.1-2.6-0.3c-5.3-1.4-8.5-6.9-7.1-12.2c1.2-4.4,5.1-7.4,9.6-7.4c0.9,0,1.7,0.1,2.6,0.3c2.6,0.7,4.7,2.3,6.1,4.7
			C63.7,320.1,64,322.8,63.3,325.4z M383.9,440.8c5.5,0,10,4.5,10,10s-4.5,10-10,10c-5.5,0-10-4.5-10-10
			C373.8,445.3,378.3,440.8,383.9,440.8z M292.2,40.3c1.9-1.9,4.4-2.9,7.1-2.9c2.7,0,5.2,1,7.1,2.9c3.9,3.9,3.9,10.2,0,14.1
			c-1.9,1.9-4.4,2.9-7.1,2.9c-2.7,0-5.2-1-7.1-2.9c-1.9-1.9-2.9-4.4-2.9-7.1C289.3,44.7,290.3,42.2,292.2,40.3z M477,343.5
			c-2.7,4.6-7,7.9-12.1,9.3c-1.7,0.5-3.5,0.7-5.2,0.7c-9,0-17-6.1-19.3-14.8c-0.2-0.7-0.3-1.4-0.4-2c-0.6-3.5-3-6.5-6.3-7.7
			l-49.2-18.7c-4.8-1.8-10.1,0.3-12.5,4.8c-10.4,20.3-25.5,37-43.6,49.1c-0.3,0.2-0.6,0.3-1,0.6c-0.3,0.2-0.6,0.4-0.9,0.6
			C305.9,378.6,281.6,386,256,386c-22.6,0-44.9-5.9-64.4-17c-4.4-2.5-10.1-1.3-13.1,2.8l-59.3,82.1c-2.1,2.9-2.5,6.7-1,10
			c1.2,2.6,1.7,5.3,1.7,8.2c0,11-9,20-20,20c-11,0-20-9-20-20c0-11,9-20,20-20c0.7,0,1.4,0,2,0.1c3.5,0.4,7-1.2,9.1-4.1l59.3-82.1
			c3-4.1,2.4-9.9-1.4-13.3c-27.4-24.6-43-59.9-43-96.6c0-22.6,5.9-44.9,17-64.4c2.5-4.4,1.3-10.1-2.8-13.1l-82.1-59.3
			c-2.9-2.1-6.7-2.5-10-1c-2.6,1.2-5.3,1.7-8.2,1.7c-11,0-20-9-20-20c0-11,9-20,20-20s20,9,20,20c0,0.7,0,1.4-0.1,2
			c-0.4,3.6,1.2,7,4.1,9.1l82.1,59.3c4.1,3,9.9,2.4,13.3-1.4c24.6-27.4,59.8-43,96.6-43c8.9,0,17.6,0.9,26.1,2.6
			c0.1,0,0.2,0.1,0.3,0.1c0.1,0,0.1,0,0.2,0c18.5,3.8,35.9,11.6,51.2,23.2c4,3,9.5,2.6,13.1-0.9l65.6-65.6c2.8-2.8,3.7-7,2.2-10.7
			C412.9,70,412,65,412,60c0-22.1,17.9-40,40-40c22.1,0,40,17.9,40,40c0,22.1-17.9,40-40,40c-5,0-10-0.9-14.6-2.8
			c-3.7-1.5-7.9-0.6-10.7,2.2l-65.6,65.6c-3.5,3.5-3.9,9.1-0.9,13.1c16.9,22.6,25.9,49.5,25.9,77.9c0,11.2-1.4,22.3-4.2,33
			c-1.3,4.9,1.3,10.1,6.1,11.9l49.2,18.7c3.3,1.3,7.1,0.7,9.9-1.6c2.2-1.8,4.7-3.1,7.5-3.8c1.7-0.5,3.5-0.7,5.2-0.7
			c9,0,17,6.1,19.3,14.8C480.4,333.5,479.6,338.9,477,343.5z"/>
	</g>
</g>
<g>
	<g>
		<path d="M214.7,164.4c-2.8-4.8-8.9-6.4-13.7-3.7c-23.6,13.6-41.2,35.4-49.6,61.2c-1.7,5.3,1.2,10.9,6.4,12.6
			c1,0.3,2.1,0.5,3.1,0.5c4.2,0,8.1-2.7,9.5-6.9c6.9-21.2,21.3-39,40.6-50.1C215.8,175.3,217.4,169.2,214.7,164.4z"/>
	</g>
</g>
<g>
	<g>
		<path d="M156,245.7c-5.5,0-10,4.5-10,10v0.3c0,5.5,4.5,10,10,10c5.5,0,10-4.5,10-10v-0.3C166,250.2,161.5,245.7,156,245.7z"/>
	</g>
</g>
<g>
	<g>
		<path d="M354.2,277.4c-5.3-1.7-10.9,1.2-12.6,6.4c-6.9,21.2-21.3,39-40.6,50.1c-4.8,2.8-6.4,8.9-3.7,13.7c1.9,3.2,5.2,5,8.7,5
			c1.7,0,3.4-0.4,5-1.3c23.6-13.6,41.2-35.4,49.6-61.2C362.3,284.8,359.4,279.1,354.2,277.4z"/>
	</g>
</g>
<g>
	<g>
		<path d="M356,246c-5.5,0-10,4.5-10,10v0.3c0,5.5,4.5,10,10,10c5.5,0,10-4.5,10-10V256C366,250.5,361.5,246,356,246z"/>
	</g>
</g>
<g>
	<g>
		<path d="M284.8,181.9c-22.1,0-40,17.9-40,40c0,22.1,17.9,40,40,40c22.1,0,40-17.9,40-40C324.8,199.8,306.8,181.9,284.8,181.9z
			 M284.8,241.9c-11,0-20-9-20-20s9-20,20-20c11,0,20,9,20,20C304.8,232.9,295.8,241.9,284.8,241.9z"/>
	</g>
</g>
<g>
	<g>
		<path d="M217.2,270.1c-16.5,0-30,13.5-30,30c0,16.5,13.5,30,30,30s30-13.5,30-30C247.2,283.6,233.8,270.1,217.2,270.1z
			 M217.2,310.1c-5.5,0-10-4.5-10-10s4.5-10,10-10s10,4.5,10,10S222.8,310.1,217.2,310.1z"/>
	</g>
</g>
</svg>
