<?xml version="1.0" encoding="utf-8"?>
<!-- Generator: Adobe Illustrator 24.1.3, SVG Export Plug-In . SVG Version: 6.00 Build 0)  -->
<svg version="1.1" id="Layer_1" xmlns="http://www.w3.org/2000/svg" xmlns:xlink="http://www.w3.org/1999/xlink" x="0px" y="0px"
	 viewBox="0 0 512 512" style="enable-background:new 0 0 512 512;" xml:space="preserve" fill='#0c4ca3'>
<path d="M144,405.3c-8.8,0-16-7.2-16-16V250.7c0-8.8,7.2-16,16-16s16,7.2,16,16v138.7C160,398.2,152.8,405.3,144,405.3z"/>
<path d="M330.7,405.3c-29.4,0-53.3-23.9-53.3-53.3v-64c0-29.4,23.9-53.3,53.3-53.3S384,258.6,384,288v5.3c0,8.8-7.2,16-16,16
	c-8.8,0-16-7.2-16-16V288c0-11.8-9.6-21.3-21.3-21.3c-11.8,0-21.3,9.6-21.3,21.3v64c0,11.8,9.6,21.3,21.3,21.3
	c11.8,0,21.3-9.6,21.3-21.3h-16c-8.8,0-16-7.2-16-16c0-8.8,7.2-16,16-16h32c8.8,0,16,7.2,16,16v16
	C384,381.4,360.1,405.3,330.7,405.3z"/>
<path d="M218.7,406.7c-3.9,0-7.9-1.5-11-4.4L133,331.6c-3.2-3.1-5-7.3-5-11.7c0-4.4,1.9-8.6,5.1-11.6l74.7-69.3
	c6.5-6,16.6-5.7,22.6,0.9c6,6.5,5.6,16.6-0.9,22.6l-62.2,57.7l62.3,58.9c6.4,6.1,6.7,16.2,0.6,22.6
	C227.1,405,222.9,406.7,218.7,406.7L218.7,406.7z"/>
<path d="M470.4,512H41.6c-11.1,0-21.5-4.9-28.7-13.4s-10-19.7-8.1-30.6l56.2-309.3c3.2-17.7,18.7-30.6,36.7-30.6h316.4
	c18,0,33.5,12.9,36.7,30.7L507.2,468c2,10.9-0.9,22.1-8.1,30.6S481.5,512,470.4,512z M97.8,160c-2.6,0-4.8,1.8-5.2,4.4L36.3,473.7
	c-0.4,2.2,0.6,3.7,1.2,4.4c0.6,0.7,1.9,1.9,4.1,1.9h428.9c2.2,0,3.5-1.2,4.1-1.9c0.6-0.7,1.5-2.2,1.2-4.4l-56.2-309.3
	c-0.5-2.6-2.7-4.4-5.2-4.4L97.8,160z"/>
<path d="M256,149.3c-41.2,0-74.7-33.5-74.7-74.7S214.8,0,256,0s74.7,33.5,74.7,74.7S297.2,149.3,256,149.3z M256,32
	c-23.5,0-42.7,19.1-42.7,42.7s19.1,42.7,42.7,42.7s42.7-19.1,42.7-42.7S279.5,32,256,32z"/>
</svg>
