<?xml version="1.0" encoding="utf-8"?>
<!-- Generator: Adobe Illustrator 24.1.3, SVG Export Plug-In . SVG Version: 6.00 Build 0)  -->
<svg version="1.1" id="Layer_1" xmlns="http://www.w3.org/2000/svg" xmlns:xlink="http://www.w3.org/1999/xlink" x="0px" y="0px"
	 viewBox="0 0 479 479" style="enable-background:new 0 0 479 479;" xml:space="preserve" fill='#0c4ca3'>
<path d="M151.6,335.3c77.2,0,119.8-45.4,119.8-127.8c0-77.1-109.2-199.8-113.8-205C156,0.9,153.8,0,151.6,0s-4.4,0.9-5.9,2.5
	C141,7.7,31.8,130.4,31.8,207.5C31.8,289.9,74.4,335.3,151.6,335.3z M151.6,20c22.9,26.8,103.8,126.1,103.8,187.5
	c0,51-18,111.8-103.8,111.8S47.8,258.5,47.8,207.5C47.8,146.2,128.7,46.9,151.6,20z"/>
<path d="M375.2,351.2c45.7,0,71.9-30.5,71.9-83.6c0-49.9-63.3-118.5-66-121.4c-1.5-1.6-3.6-2.4-5.8-2.4c-2.2,0-4.3,0.9-5.8,2.4
	c-2.7,2.9-66,71.5-66,121.4C303.3,320.8,329.5,351.2,375.2,351.2z M375.2,163.7c15.4,17.9,55.9,68.4,55.9,103.9
	c0,44.9-18.8,67.7-55.9,67.7s-55.9-22.8-55.9-67.7C319.3,232.1,359.8,181.6,375.2,163.7z"/>
<path d="M257.4,322c-2,2.3-49.9,57-49.9,93.1c0,40.6,20.4,63.9,55.9,63.9c35.5,0,55.9-23.3,55.9-63.9c0-36.1-47.9-90.8-49.9-93.1
	c-1.6-1.6-3.7-2.6-6-2.6C261.1,319.4,259,320.3,257.4,322z M263.4,463c-26.5,0-39.9-16.1-39.9-47.9c0-21.7,25-57,39.9-75.4
	c14.9,18.4,39.9,53.7,39.9,75.4C303.3,446.9,289.9,463,263.4,463z"/>
<path d="M134.8,303.3c0.3,0,0.5,0,0.8,0c4.3,0,7.8-3.3,8-7.6c0.2-4.3-2.9-7.9-7.2-8.3c-16.7-0.8-32.2-8.8-42.7-21.8
	c-21.2-27.7-14.2-72.3-14.1-72.8c0.6-4.3-2.3-8.2-6.6-9c-4.3-0.7-8.3,2.1-9.1,6.3c-0.4,2.1-8.3,51.8,17.2,85
	C94.1,291.9,113.7,302.1,134.8,303.3z"/>
<path d="M367.2,319.3c14.7-0.2,28.8-6.3,39.1-16.8c8.9-11.4,12.1-26.3,8.7-40.4c-0.8-4.3-4.9-7.1-9.2-6.4c-4.3,0.7-7.2,4.7-6.6,9
	c2.4,9.4,0.6,19.5-5.1,27.4c-7.2,7-16.9,11-26.9,11.2c-4.4,0-8,3.6-8,8C359.2,315.7,362.8,319.3,367.2,319.3z"/>
<path d="M259,431.9c-2.5-1-4.4-3.1-5.3-5.6c-0.8-2.5-0.5-5.3,0.9-7.6c2-3.9,0.4-8.7-3.6-10.7c-3.9-2-8.7-0.4-10.7,3.6
	c-3.3,6.1-3.9,13.3-1.7,19.9c2.2,6.6,7,11.9,13.3,14.9c3.9,2,8.7,0.4,10.7-3.6C264.5,438.7,262.9,433.9,259,431.9L259,431.9z"/>
</svg>
