<svg xmlns="http://www.w3.org/2000/svg" width="85.487" height="86.295" viewBox="0 0 85.487 86.295">
  <g id="Group_1" data-name="Group 1" transform="translate(-675.663 -2585.99)">
    <path id="Shape_514" data-name="Shape 514" d="M715.888,2672.027c-2.147-.269-4.294-.644-6.46-1.05.219-.77-3.028-.727-2.33-1.832l.129.158c.525.077.508-.183.257-.456a2.035,2.035,0,0,0-1.145-.652c.369.307-.093.491-.406.692s-.469.419.571.809l-.9.042c-.458.028-.91.016-.91.016-.812.953-1.952.54-3.146-.221-1.209-.746-2.437-1.821-3.783-2.106a.451.451,0,0,0,.364-.136,4.591,4.591,0,0,1-1.708-.685c-.262-.162-.512-.336-.75-.517s-.447-.387-.65-.577c-.819-.749-1.366-1.456-1.693-1.463l.2-.64a6.249,6.249,0,0,1-2.227-.62,6.615,6.615,0,0,1-1.758-1.724c.093-.056.421-.014.23-.359a3.05,3.05,0,0,1-1.153-.212,3.57,3.57,0,0,1-1.408-1.133l.192-.092-.922-.891c-.452-.456-.887-.929-.887-.929a.6.6,0,0,0,.068-.957,8.285,8.285,0,0,0-1.2-1.062,5.091,5.091,0,0,1-1.224-1.25,1.1,1.1,0,0,1-.008-1.356,2.975,2.975,0,0,1-1.318-.889c-.473-.451-.889-.993-1.223-1.284a.362.362,0,0,0,.132-.3c-.722-.161-.963-.857-1.119-1.59a8.068,8.068,0,0,0-.436-2.008c-.523-.543-.708-.136-.887.288a3.452,3.452,0,0,0-1.07-2.344c-.563-.723-1.145-1.347-1.061-1.652-.238-1.036.607-.6.942-1-.269-.642-.63-.555-.928-.469-.365.106-.635.212-.527-1.017.14.218.338.631.4.434-.04-.405.438-1.1.831-1.743s.716-1.246.436-1.577l-.256.564a3.093,3.093,0,0,1,.057-2.244c.211-.714.34-1.249-.336-1.284l-.6.2a9.62,9.62,0,0,0,.185-1.249,1.162,1.162,0,0,0-.081-.5,1.348,1.348,0,0,1-.1-.508,4.35,4.35,0,0,1,.2-1.246l.1.026c-.146-1.066.6-1.628-.366-2.158l-.144.367a12.628,12.628,0,0,1,.011-1.394c.017-.365.071-.732.151-1.405-.084-.164-.181-.833.042-1-.421-.069-.412-.87-.289-1.727.031-.214.068-.432.111-.642s.107-.409.155-.593c.1-.366.19-.664.231-.812-.071,1.088.367.638.751.4a1.537,1.537,0,0,1-.4-.97,1.753,1.753,0,0,1,.538-.97,3.181,3.181,0,0,1-1.323-.743,1.5,1.5,0,0,1-.355-.715,2.708,2.708,0,0,1,.078-1.093c.072.313.038.756.291.639s.144-.582.109-.739c.127-.058.19.068.274.193s.181.243.378.2a1.9,1.9,0,0,1,.068-1.76,7.571,7.571,0,0,0,.737-1.984c.086.625.45.251.852.2-.52-.272-.066-.733.309-1.105s.706-.65-.121-.655a54.726,54.726,0,0,0,3.053-4.838,19.644,19.644,0,0,1,1.462-2.056,3.252,3.252,0,0,1,1.292-1.039c.549-.015.573-1.156.921-1.628l.346.386a4.519,4.519,0,0,1,.472-1.528,6.349,6.349,0,0,0,.275-.59c.11-.253.241-.589.407-1.1-.113,1,.333.938,1.219.706l.07-.841.1-.833.733.394a2.158,2.158,0,0,1,1.213-1.2,2.184,2.184,0,0,1,.561-1.459c.421-.549.9-1.05.889-1.373a.865.865,0,0,0,1.1-.329c.262-.281.508-.559.971-.272a2.356,2.356,0,0,1,.382-.717c-.5-.234-.887-.608-.3-.714.034-.034.065-.053.1-.084l.538.393a6.274,6.274,0,0,1,1.129-.986,2.719,2.719,0,0,1-.641.031,5.933,5.933,0,0,1,.732-.086,1.614,1.614,0,0,1,.175-.093.257.257,0,0,1-.087.086,1.326,1.326,0,0,0,1.013-.575,2.985,2.985,0,0,0,1.436-.52c.44-.285.847-.681,1.293-1.027a7.014,7.014,0,0,1,1.4-.94,2.869,2.869,0,0,1,1.677-.211c-.345-.009-.788.1-.819.354a6.574,6.574,0,0,1,1.264-.389c.433-.075.86-.126,1.263-.18a4.181,4.181,0,0,0,1.988-.581l-.232-.537c.3-.151.58-.3.854-.425s.542-.23.8-.328a7.075,7.075,0,0,1,1.551-.434l-.068-.654a6.8,6.8,0,0,0,1.428-.259c.536-.14,1.125-.266,1.7-.376a7.813,7.813,0,0,1,.842-.118,4.684,4.684,0,0,1,.777.02,1.652,1.652,0,0,1,1.142.535c.174-.284.716-.255,1.319-.189a7.886,7.886,0,0,0,1.7.1l.216.507a5.688,5.688,0,0,0,1.427.073c.4-.017.753-.069,1.1-.117a6.961,6.961,0,0,0,3.27.771,15.041,15.041,0,0,1,3.121.282l-.014.145,1.04.057,1.038.1c-.32.144-.2.1.065.05a1.677,1.677,0,0,1,.977.052,3.671,3.671,0,0,1,2.3,1l1.213.5c-1.479-.217-.168.711-.324,1.274l.468-.064.465-.044c.188.39-.659.2-.161.561a5.712,5.712,0,0,1,1.366.249,2.566,2.566,0,0,0,1.432.1,1.157,1.157,0,0,0-.29-.594c-.079,0-.072-.005-.014-.02l-.038-.053a.71.71,0,0,0,.054.049,1.17,1.17,0,0,0,.308-.1c.871.591.641.205.729-.043a3.708,3.708,0,0,0,1.006,1.258,1.9,1.9,0,0,1,.681,1.086c-.08-.623.487-.243,1.076.138s1.212.771,1.207.118c.209,1.26.473.386.482,1.349a2.859,2.859,0,0,0-1.63-.806c-.615-.116-1.226-.163-1.748-.228,0,0,.139.229.263.477l.25.486a.7.7,0,0,1-.7.006,1.949,1.949,0,0,1-.574-.5c-.355-.413-.67-.905-1-.887a1.169,1.169,0,0,1,.976.776l.169-.768a3.3,3.3,0,0,0-.8-.552,3.987,3.987,0,0,0-.857-.258,10.071,10.071,0,0,0-1.647-.132c.695.6-1.179-.011-.826.763l.668.2a.172.172,0,0,1-.047.233,39.724,39.724,0,0,1,4.778,2.717l-.392-.393.581-.247-.166.655c.514.342,1.016.693,1.513,1.057a1.455,1.455,0,0,1,1.039-.149c.5.047.956.114.948-.3a2.778,2.778,0,0,1,.189.691c.068.2.244.382.8.695.909.175-.191-1.282-.306-1.7.955.359,1.077.223,1.246.067.035,1.223-.6,2.775-1.466,2.638q.469.4.926.823c-.1-.275.266-.159.623.159l-.174.236a.238.238,0,0,1-.038-.012,39.714,39.714,0,0,1,12.5,28.974c0,.762-.022,1.521-.064,2.273l.18-.125c.589-.413,1.127-.754,1.6-.227l-.127-.767c.4.136.412.741.369,1.366s-.072,1.272.337,1.536c0,0-.059.149-.168.367l-.4.8c-.145.285-.289.571-.4.785s-.183.354-.183.354a.761.761,0,0,1,.367.1c.205.1.4.194.5-.039-.088.6-.14,1.133.435.416a52.113,52.113,0,0,0-3.234,8.294,20.1,20.1,0,0,1-4.153,7.6c-.147.363.212.338.454.315-.612.231-.666.491-.6.77s.257.576.131.849l-.912.3c-.225.076-.454.145-.629.192l-.289.081c-.117.7.457.528.61.7a9.666,9.666,0,0,1-1.412,1.682c-.26.254-.524.5-.788.737s-.546.454-.812.677-.53.442-.781.663-.511.427-.745.649a8.69,8.69,0,0,0-1.227,1.422.5.5,0,0,1-.607-.2c-.138-.184-.224-.368-.693-.066.878,0,.444.595-.115,1.157-.514.516-1.1,1.039-.723,1.164a3.72,3.72,0,0,0-2.067.6c-.657.312-1.224.423-1.512-.411-1.022.533-.418,1.141-.048,1.089-.586.351-1.135.63-1.613.973a5.823,5.823,0,0,0-.674.559,4.664,4.664,0,0,0-.607.661,4.164,4.164,0,0,0-1.236.483c-.589.259-1.3.638-2.058.936-1.487.614-3.119,1.021-3.9.607.983.55.029.428-.637.988l.914.516-.9.214-.617.146c-.168.042-.283.06-.283.06-.348.154-.46.148-.473.082-.311.034-.031-.434-.837-.442a2.42,2.42,0,0,0-1.13.455c-.225.187-.372.416-.68.666l.209.076-.831.219c-.313.044.209-.238.538-.529s.469-.6-.549-.611c.017.223-1.034,1.355-1.651.89,1.039-.093.831-.589.429-.76l-.714.063-.49.043c-.133.013-.223.013-.223.013l.284.447.289.44q-1.188.1-2.4.1A31.722,31.722,0,0,1,715.888,2672.027Zm11.527-1.167.319.094c.082-.134.166-.261.076-.261A1.188,1.188,0,0,0,727.415,2670.86Zm-49.653-49.868s.005.436.035.87l.07.868a6.116,6.116,0,0,1,.666-.548c.022-.114.045-.228.069-.342-.053-.158-.1-.309-.148-.45l.192.237c.057-.269.116-.536.178-.8a.5.5,0,0,0-.494.226c.041.1.084.215.124.339-.212-.259-.4-.456-.559-.456A.188.188,0,0,0,677.762,2620.992Zm10.4-18.751c.019.223.041.479.069.753q.345-.377.7-.745a2.981,2.981,0,0,1-.828-.782S688.129,2601.776,688.165,2602.24Zm55.264-2.663a1.529,1.529,0,0,0-.873-.89,1.392,1.392,0,0,0-.317-.087Q742.844,2599.078,743.429,2599.578Zm-53.123-.551a.8.8,0,0,1-.076-.225C690.042,2598.981,690.2,2598.933,690.306,2599.026Zm51.675-.627a.092.092,0,0,0,.015-.019l-.077-.029Zm-42.938-3.757q.977-.516,1.985-.979c.333-.932.64-1.838.808-2.4,0,0-.069.059-.173.15s-.243.206-.376.336l-.532.505-.49-.244A4.712,4.712,0,0,0,699.043,2594.642Zm40.536-.913Zm-10.107-2.3a2.785,2.785,0,0,0,1.392.59c-.04-.542,1.064-.894.375-1.859a2.029,2.029,0,0,0-2.287-.364,4.395,4.395,0,0,1-1.1.289,3.763,3.763,0,0,1-1.645-.169c-.146.045.043-.121.077-.309s-.093-.417-.887-.413a7.015,7.015,0,0,0-1.408.243,4.613,4.613,0,0,0-1.136.513,3.243,3.243,0,0,0-.506.389,39.645,39.645,0,0,1,5.59,1.076,1.071,1.071,0,0,1-.3-.259,2.208,2.208,0,0,0,1.646.255l-.9-.6A3.52,3.52,0,0,1,729.472,2591.43Zm-21.752-.135c.465-.119.935-.23,1.407-.332l-.034-.988.23.945q.716-.151,1.439-.277a.624.624,0,0,0-.2-.25,5.577,5.577,0,0,0-1.64-.576c-.658-.146-1.278-.246-1.361-.261A3.672,3.672,0,0,0,707.72,2591.3Zm7.256-1.151q.586-.038,1.177-.059a.784.784,0,0,1-.207-.542A2.49,2.49,0,0,0,714.976,2590.145Zm16.555-.728a.174.174,0,0,1,.042-.018c-.24-.149-.412-.269-.417-.269S731.259,2589.21,731.531,2589.417Zm11.8,74.292c.039.006.077.014.116.023A.546.546,0,0,1,743.335,2663.709Zm-63.139-13.24c.089-.12.266-.026.5.181a.183.183,0,0,1-.1.029A.688.688,0,0,1,680.2,2650.469Zm79.29-14.961a1.957,1.957,0,0,1-.059.8A6.191,6.191,0,0,0,759.487,2635.508Zm.869-3.493.456-.559s-.074.222-.148.444-.161.439-.161.439Zm-.674-2.137.745.535-.843.2C759.777,2630.461,759.714,2630.074,759.682,2629.877Zm.869-.315c-.039,0-.022-.02.027-.044.128-.066.473-.13.572.359C761.051,2629.817,760.513,2629.959,760.551,2629.563Zm-1.758-6.35-.461-.76.7.836Zm-.86-2.44.166-.216a3.519,3.519,0,0,0-.566-1.706c-.273-.548-.449-1.048-.094-1.456a4.859,4.859,0,0,0,.53,1.722c.291.644.585,1.343.8,1.966Zm-1.574-2.717s.026-.167.043-.33.031-.328.031-.328c.13-.062.178.153.209.41a1.341,1.341,0,0,0,.156.663Zm2.067-3.8c.059-.248.124-.113.144.023.012.081.008.162-.022.162S758.486,2614.392,758.426,2614.256Zm-.454-.559a.164.164,0,0,0,.241-.042,5.039,5.039,0,0,0,.213.6,1.135,1.135,0,0,0-.033.164C757.92,2613.567,757.876,2613.633,757.972,2613.7Zm-1.313-.51c.617.661.516.043.495-.474.4.723.424,1.22.3,1.332a.1.1,0,0,1-.072.027C757.233,2614.072,756.973,2613.8,756.659,2613.187Zm-.9-1.248c-.31-.274-.648-.528-.648-.528l-.14-.255s.091.081.229.2.324.282.495.451l.7.68Zm1.292-.4c.107-.606.218-.872.75-.124-.26-.2.019.532-.1.783Zm-.367.242c-.621-.035-.355-.172-.272-.349l.649.737C756.721,2611.883,756.407,2611.825,756.686,2611.781Zm-.425-.521-.161-.167c.344.107.363.229.314.338Zm-3.092-2.165c-.132-1.173.706-.382,1.248-.055-.474-.28-.644-.165-.806-.05a.5.5,0,0,1-.3.125A.518.518,0,0,1,753.169,2609.1Zm-1.445-.336a.245.245,0,0,1,.19-.024c.117.014.221.03.183-.227-.184-.394-.432-.368-.568-.437a3.983,3.983,0,0,1,.565-1.386,4.276,4.276,0,0,0,.116,1.733l.135.069c.092.386.023.5-.1.5A1.576,1.576,0,0,1,751.724,2608.759Zm0,0a.158.158,0,0,0-.078.117C751.541,2608.685,751.6,2608.7,751.724,2608.759Zm2.963-1.282c-.129-.109-.265-.21-.265-.21.18-.185.271-.649.465-.708-.223.193.015.78.055,1.137Zm-1.059-.827.795.617a.216.216,0,0,1-.154.074C754.123,2607.341,753.926,2607.168,753.628,2606.65Zm-.845-.1c-.1-.226-.221-.446-.221-.446l.146.1.308.233.448.343c-.275-.145-.356.122-.469.217Zm-.616.018-.073.115C752.114,2606.6,752.138,2606.555,752.167,2606.569Zm-.028-.757.25-.031.173.324Zm.675-.548c.019.029.032.05.052.077l-.029,0C752.788,2605.344,752.793,2605.316,752.814,2605.264Zm-.209-.308.231-.625a1.038,1.038,0,0,1-.023.933Zm-.44-.671.44.671-.007.021Zm-3.123-.651-.2.215-.144-.9.609.5c.156.122.3.254.409.352l.184.163c-.126.029-.226.138-.356.138S749.271,2604,749.042,2603.635Zm4.129-.049-.343-.085-.448-.2.573.177.562.2Zm-1.962-.5c.027.014.056.041.085.057-.022.022-.039.031-.052.031S751.209,2603.134,751.209,2603.083Zm-.586-.445a2.33,2.33,0,0,1,.615.236.718.718,0,0,0-.029.209A3.678,3.678,0,0,1,750.623,2602.639Zm.615.236c.03-.1.064-.15.059.035A.5.5,0,0,0,751.238,2602.875Zm-1.373-.81c-.11-.085-.067-.114.015-.138a6.607,6.607,0,0,0,.743.713A1.031,1.031,0,0,1,749.865,2602.065Zm-1.013-1.528a4,4,0,0,0,1.191.867c.419.454.021.468-.162.523A14.647,14.647,0,0,1,748.851,2600.537Zm2.39,1.1a2.626,2.626,0,0,0-1.09-1.533,4.247,4.247,0,0,1,1.669.876c-.242-.094-.237.113-.257.319-.017.171-.054.342-.267.342A.455.455,0,0,1,751.242,2601.64Zm-3.676-.842c-.24.006-.46.012-.971-.458,0-.561.392-.526.836-.491a2.075,2.075,0,0,0,.634-.015,8.771,8.771,0,0,1-1.31-1.265l.8.555c.408.273.795.573.795.573a.036.036,0,0,1,0,.01l.007,0-.007-.005c0-.018,0-.034-.006-.057a8.74,8.74,0,0,0,.506.9,5.863,5.863,0,0,0-.822-.649c.358.6.048.549-.187.5s-.4-.106.31.537A1.071,1.071,0,0,0,747.565,2600.8Zm.5-.968a.621.621,0,0,0,.21-.084,2.24,2.24,0,0,0-.313-.178C747.927,2599.568,747.942,2599.631,748.067,2599.83Zm.246-.063c.036.1.048.047.04-.062a.638.638,0,0,1-.076.041C748.285,2599.752,748.3,2599.767,748.312,2599.767Zm.941.009a2.7,2.7,0,0,1,.9.331A5.551,5.551,0,0,1,749.253,2599.776Zm-1.224-.883c.16-.048.294.46.317.745C748.228,2599.378,748.113,2599.131,748.029,2598.893Zm-1.611-.559.152.04-.22-.221-.5-.469-.733-.681c.145-.1.371-.155,1.053.105a4.594,4.594,0,0,0,.587,1.46Zm-1.379-1.4.076.072-.076.06C745.038,2597.016,745.038,2596.975,745.039,2596.93Zm-.679-.59.627-.034c.318-.019.627-.02.627-.02l-.539.311Zm-3.157-.358c.332.145.729.142.5.337A2.389,2.389,0,0,0,741.2,2595.982Zm-1.079-1c.719.161,1.43.369.853.863a.566.566,0,0,0,.094.067C740.495,2595.6,739.9,2595.469,740.124,2594.98Zm2.992-.066.318.038c.161.017.318.041.318.041l-.368.361Zm-6.4-.553a3.164,3.164,0,0,1,.76.307h-.008A1.8,1.8,0,0,1,736.719,2594.361Zm-1.158-.547c.065-.182.616.245,1.158.547-.163-.03-.307-.031-.344.071Zm1.6-.106a.456.456,0,0,0-.279.163A.362.362,0,0,1,737.162,2593.707Zm-43.721-.21c-.391-.433.686-.245,1.515-.209a1.983,1.983,0,0,0-1.026.561Zm46.127-1.1.463.173c.141.051.279.108.365.146-.159-.04-.131.184-.182.3A1.357,1.357,0,0,0,739.568,2592.4Zm.828.319a.353.353,0,0,1,.092.041Zm-4.063-1.82a2.85,2.85,0,0,1,.435.408A3.358,3.358,0,0,1,736.332,2590.894Zm.472.13c.4.094.417.169.324.227Zm-1.107-.481c.284.117.457.184.581.23-.03.006-.01.05.054.121A3.412,3.412,0,0,0,735.7,2590.543Zm.581.23a.284.284,0,0,1,.154.031c.04.017.066.035.049.035A.983.983,0,0,1,736.278,2590.773Zm-1.512-.213c-.864-.2-.592-.374-.166-.455s1-.035.7.2c-.04-.136-.116,0-.211.126-.067.092-.143.185-.224.185A.136.136,0,0,1,734.766,2590.56Zm-10.538-.358,1.118.012c.125.239-.293.252-.578.358h-.047C724.333,2590.573,724.088,2590.393,724.228,2590.2Zm-1.959-3.286a5.1,5.1,0,0,1,1.432.522.274.274,0,0,1-.246.161C723.177,2587.6,722.774,2587.219,722.269,2586.916Zm-1.72-.143a1.65,1.65,0,0,1,1.72.143,4.264,4.264,0,0,0-1.415.012C720.751,2586.874,720.65,2586.838,720.549,2586.773Z" fill="#0c4ca3"/>
    <path id="Forma_1" data-name="Forma 1" d="M703.732,2634.75a13.828,13.828,0,0,1,2.958-8.56.53.53,0,0,1,.041-.06l9.712-12.736a.665.665,0,0,1,.527-.264h0a.667.667,0,0,1,.527.266l9.67,12.8.009.012a13.837,13.837,0,0,1,2.942,8.539,13.2,13.2,0,1,1-26.389,0Zm4.111-7.847a.93.93,0,0,1-.06.088,12.421,12.421,0,0,0-2.711,7.759,11.859,11.859,0,1,0,23.71,0,12.43,12.43,0,0,0-2.662-7.7c-.009-.013-.019-.025-.027-.038l-9.124-12.08Zm7.566,17.779a.678.678,0,0,1-.425-.436,9.1,9.1,0,0,1-.316-2.942.679.679,0,0,1-.156-.12l-3.967-4.07a.7.7,0,0,1,0-.972.659.659,0,0,1,.948,0l3.394,3.483a10.269,10.269,0,0,1,2.749-5.023,9.663,9.663,0,0,1,6.3-3.03,8.522,8.522,0,0,1,3.1.31.679.679,0,0,1,.438.485l0,.006a10.016,10.016,0,0,1-2.668,9.587,9.666,9.666,0,0,1-6.3,3.031c-.235.017-.462.024-.677.024A8.167,8.167,0,0,1,715.409,2644.682Zm8.225-8.876a.7.7,0,0,1,0,.972l-6.646,6.82a8.1,8.1,0,0,0,1.482.019,8.3,8.3,0,0,0,5.389-2.628,8.635,8.635,0,0,0,2.411-7.891,7.9,7.9,0,0,0-2.3-.151,8.3,8.3,0,0,0-5.388,2.628,8.7,8.7,0,0,0-2.561,5.53,8.8,8.8,0,0,0,.019,1.522l6.647-6.82a.658.658,0,0,1,.947,0Zm-11.671,8.285a10.385,10.385,0,0,1-2.918-2.13,10.016,10.016,0,0,1-2.668-9.587l0-.006a.68.68,0,0,1,.438-.485,9.256,9.256,0,0,1,8.727,2.084.7.7,0,0,1,.076.969.659.659,0,0,1-.944.078,8.1,8.1,0,0,0-7.1-1.918,8.637,8.637,0,0,0,2.411,7.892,9.069,9.069,0,0,0,2.541,1.859.7.7,0,0,1,.321.914.67.67,0,0,1-.607.4A.656.656,0,0,1,711.963,2644.091ZM722.5,2627.4l-.019-.025a.7.7,0,0,1,.12-.964.657.657,0,0,1,.94.122l.019.024a.7.7,0,0,1-.119.964.657.657,0,0,1-.94-.122Zm-1.327-1.757-3.847-5.094a.7.7,0,0,1,.12-.964.658.658,0,0,1,.94.123l3.848,5.094a.7.7,0,0,1-.12.964.654.654,0,0,1-.41.144A.662.662,0,0,1,721.178,2625.643Z" fill="#fff"/>
  </g>
</svg>
