<svg xmlns="http://www.w3.org/2000/svg" width="85.486" height="86.295" viewBox="0 0 85.486 86.295">
  <g id="Group_2" data-name="Group 2" transform="translate(-674.663 -2735.99)">
    <path id="Shape_514_copy" data-name="Shape 514 copy" d="M714.888,2822.028c-2.147-.269-4.294-.644-6.46-1.051.219-.771-3.028-.728-2.33-1.832l.129.157c.525.078.508-.182.257-.455a2.03,2.03,0,0,0-1.145-.652c.369.306-.093.491-.406.692s-.47.419.571.808l-.9.042c-.458.029-.91.017-.91.017-.812.953-1.953.54-3.146-.221-1.209-.746-2.438-1.821-3.784-2.106a.455.455,0,0,0,.365-.136,4.591,4.591,0,0,1-1.708-.685c-.262-.162-.513-.338-.75-.518s-.447-.387-.65-.577c-.82-.749-1.366-1.456-1.693-1.462l.2-.64a6.287,6.287,0,0,1-2.228-.62,6.645,6.645,0,0,1-1.758-1.725c.094-.056.422-.014.229-.359a3.073,3.073,0,0,1-1.152-.212,3.582,3.582,0,0,1-1.408-1.133l.192-.093s-.462-.445-.922-.891-.887-.928-.887-.928a.6.6,0,0,0,.068-.957,8.227,8.227,0,0,0-1.2-1.062,5.132,5.132,0,0,1-1.225-1.25,1.105,1.105,0,0,1-.007-1.356,2.975,2.975,0,0,1-1.318-.889c-.473-.451-.889-.994-1.224-1.284a.36.36,0,0,0,.133-.3c-.722-.16-.963-.856-1.119-1.589a8.072,8.072,0,0,0-.436-2.007c-.523-.543-.708-.136-.887.287a3.456,3.456,0,0,0-1.07-2.344c-.563-.722-1.145-1.347-1.061-1.651-.239-1.035.607-.6.942-1-.27-.642-.631-.555-.928-.469-.365.106-.635.212-.527-1.017.139.217.337.631.4.433-.04-.4.438-1.1.831-1.742s.716-1.246.436-1.578l-.257.565a3.094,3.094,0,0,1,.057-2.244c.211-.714.34-1.249-.336-1.284l-.6.2a9.628,9.628,0,0,0,.185-1.248,1.15,1.15,0,0,0-.082-.5,1.358,1.358,0,0,1-.1-.507,4.355,4.355,0,0,1,.2-1.246l.1.027c-.146-1.066.6-1.628-.366-2.158l-.144.367a12.9,12.9,0,0,1,.01-1.394c.018-.365.072-.733.152-1.4-.084-.165-.181-.834.042-1-.421-.07-.412-.871-.29-1.728.031-.213.069-.431.111-.641s.107-.408.156-.593c.1-.366.19-.665.231-.813-.071,1.088.367.638.752.4a1.532,1.532,0,0,1-.4-.971,1.754,1.754,0,0,1,.538-.969,3.178,3.178,0,0,1-1.323-.743,1.506,1.506,0,0,1-.356-.715,2.707,2.707,0,0,1,.078-1.093c.072.313.038.755.291.638s.144-.581.109-.739c.127-.057.19.068.273.193s.182.243.379.2a1.9,1.9,0,0,1,.068-1.76,7.571,7.571,0,0,0,.737-1.985c.086.625.449.251.852.2-.52-.272-.066-.734.308-1.1s.707-.651-.12-.656a54.336,54.336,0,0,0,3.052-4.837,19.59,19.59,0,0,1,1.463-2.055,3.244,3.244,0,0,1,1.292-1.04c.549-.016.573-1.156.921-1.628l.346.386a4.517,4.517,0,0,1,.472-1.528,6.251,6.251,0,0,0,.275-.589,11.631,11.631,0,0,0,.408-1.1c-.112,1,.333.938,1.219.708l.07-.843.1-.833.733.394a2.158,2.158,0,0,1,1.213-1.2,2.182,2.182,0,0,1,.561-1.459c.421-.549.9-1.051.889-1.373a.867.867,0,0,0,1.1-.328c.262-.281.508-.56.97-.272a2.361,2.361,0,0,1,.382-.717c-.5-.234-.887-.608-.3-.714.034-.034.065-.053.1-.085l.539.393a6.271,6.271,0,0,1,1.129-.985,2.814,2.814,0,0,1-.641.031,5.577,5.577,0,0,1,.732-.086,1.628,1.628,0,0,1,.175-.093.266.266,0,0,1-.087.085,1.325,1.325,0,0,0,1.012-.574,2.985,2.985,0,0,0,1.437-.52c.44-.286.847-.682,1.293-1.027a6.937,6.937,0,0,1,1.4-.939,2.871,2.871,0,0,1,1.676-.212c-.344-.008-.788.1-.818.354a6.486,6.486,0,0,1,1.264-.389c.433-.077.86-.126,1.263-.18a4.178,4.178,0,0,0,1.988-.582l-.232-.535c.3-.151.58-.3.854-.426s.542-.229.8-.328a7.133,7.133,0,0,1,1.552-.433l-.068-.653a6.879,6.879,0,0,0,1.428-.26c.536-.14,1.125-.264,1.7-.375a7.781,7.781,0,0,1,.842-.118,4.592,4.592,0,0,1,.776.02,1.65,1.65,0,0,1,1.143.534c.173-.283.716-.255,1.319-.189a7.871,7.871,0,0,0,1.7.1l.216.508a5.677,5.677,0,0,0,1.427.073c.4-.017.753-.069,1.1-.117a6.963,6.963,0,0,0,3.27.77,15.109,15.109,0,0,1,3.121.281l-.014.146,1.04.057,1.038.1c-.321.144-.2.1.065.05a1.675,1.675,0,0,1,.977.052,3.666,3.666,0,0,1,2.3,1l1.212.5c-1.478-.218-.167.711-.323,1.274l.468-.063.465-.045c.188.391-.659.2-.161.562a5.723,5.723,0,0,1,1.365.247,2.559,2.559,0,0,0,1.432.1,1.155,1.155,0,0,0-.289-.595c-.079,0-.072,0-.014-.019l-.038-.054c.021.02.029.029.054.05a1.2,1.2,0,0,0,.307-.1c.872.59.642.205.729-.043a3.692,3.692,0,0,0,1.007,1.257,1.9,1.9,0,0,1,.681,1.085c-.08-.623.487-.242,1.075.139s1.213.77,1.207.117c.21,1.26.474.387.483,1.35a2.859,2.859,0,0,0-1.63-.807c-.615-.115-1.226-.162-1.748-.227,0,0,.14.229.263.477l.25.486a.7.7,0,0,1-.7.006,1.962,1.962,0,0,1-.574-.5c-.355-.413-.67-.906-1-.888a1.17,1.17,0,0,1,.977.777l.169-.768a3.256,3.256,0,0,0-.8-.552,3.937,3.937,0,0,0-.856-.258,9.964,9.964,0,0,0-1.647-.132c.695.6-1.18-.011-.826.763l.668.2a.171.171,0,0,1-.047.233,39.713,39.713,0,0,1,4.78,2.719l-.4-.395.582-.247-.166.655q.769.511,1.513,1.057a1.45,1.45,0,0,1,1.039-.149c.5.047.956.113.948-.3a2.763,2.763,0,0,1,.189.69c.068.2.243.383.8.7.909.174-.191-1.282-.306-1.7.955.36,1.077.223,1.246.068.035,1.223-.6,2.775-1.466,2.638q.469.4.926.823c-.1-.275.266-.159.623.159l-.173.235a.234.234,0,0,1-.04-.012,39.711,39.711,0,0,1,12.5,28.975q0,1.144-.064,2.273l.179-.124c.59-.413,1.128-.754,1.6-.227l-.127-.767c.4.136.412.742.369,1.366s-.072,1.273.336,1.536c0,0-.059.148-.167.367l-.4.8-.4.786c-.107.212-.183.353-.183.353a.745.745,0,0,1,.366.1c.205.1.4.194.5-.039-.088.6-.14,1.133.435.416a52.128,52.128,0,0,0-3.234,8.293,20.093,20.093,0,0,1-4.154,7.6c-.147.364.212.337.454.316-.612.231-.666.491-.6.77s.256.576.131.848l-.913.3c-.224.075-.453.145-.629.192l-.288.081c-.117.7.457.527.609.7a9.634,9.634,0,0,1-1.411,1.682c-.26.253-.525.5-.787.736s-.546.455-.813.678-.529.441-.78.663-.511.427-.745.649a8.678,8.678,0,0,0-1.227,1.422.5.5,0,0,1-.607-.2c-.138-.185-.225-.368-.693-.067.878.005.444.6-.115,1.158-.514.516-1.1,1.039-.722,1.163a3.734,3.734,0,0,0-2.067.6c-.657.311-1.224.424-1.512-.41-1.022.533-.418,1.141-.048,1.088-.586.352-1.135.63-1.613.974a5.755,5.755,0,0,0-.674.559,4.66,4.66,0,0,0-.607.661,4.143,4.143,0,0,0-1.236.483c-.589.259-1.3.638-2.058.936-1.486.612-3.117,1.02-3.9.608.98.548.027.427-.639.988l.914.516-.9.214-.617.146c-.168.042-.283.06-.283.06-.349.154-.46.146-.473.081-.311.035-.031-.434-.837-.442a2.411,2.411,0,0,0-1.129.456c-.225.187-.373.416-.68.666l.209.075-.832.22c-.312.044.21-.237.539-.529s.469-.6-.549-.61c.017.223-1.034,1.355-1.652.889,1.039-.093.832-.59.43-.76l-.714.063-.491.043c-.133.011-.223.012-.223.012l.284.447.289.439q-1.189.1-2.4.1A31.848,31.848,0,0,1,714.888,2822.028Zm11.527-1.168.319.094c.082-.135.166-.262.076-.262A1.187,1.187,0,0,0,726.415,2820.859Zm-49.653-49.867s.005.436.035.87l.07.869a6.052,6.052,0,0,1,.666-.549c.022-.114.045-.228.068-.341-.053-.158-.1-.309-.148-.449l.192.237c.057-.269.116-.536.178-.8a.494.494,0,0,0-.494.225c.041.1.084.215.124.34-.212-.26-.4-.456-.559-.456A.188.188,0,0,0,676.762,2770.992Zm10.4-18.752c.019.223.041.479.069.753q.345-.377.7-.745a2.976,2.976,0,0,1-.828-.783S687.129,2751.775,687.165,2752.24Zm55.264-2.662a1.526,1.526,0,0,0-.873-.89,1.409,1.409,0,0,0-.316-.087Q741.844,2749.078,742.429,2749.578Zm-53.123-.552a.8.8,0,0,1-.076-.225C689.042,2748.981,689.2,2748.934,689.306,2749.027Zm51.675-.627a.091.091,0,0,0,.015-.019l-.077-.029Zm-42.938-3.757q.977-.516,1.985-.978c.333-.932.641-1.838.808-2.4l-.174.15c-.1.09-.242.207-.375.337l-.532.506-.491-.244A4.71,4.71,0,0,0,698.043,2744.642Zm40.536-.914Zm-10.107-2.3a2.785,2.785,0,0,0,1.392.59c-.04-.542,1.063-.894.375-1.859a2.029,2.029,0,0,0-2.287-.365,4.393,4.393,0,0,1-1.1.29,3.747,3.747,0,0,1-1.645-.17c-.146.046.043-.12.076-.309s-.093-.416-.886-.413a7.158,7.158,0,0,0-1.409.243,4.625,4.625,0,0,0-1.136.514,3.26,3.26,0,0,0-.506.389,39.6,39.6,0,0,1,5.592,1.077,1.074,1.074,0,0,1-.306-.26,2.21,2.21,0,0,0,1.646.255l-.9-.6A3.519,3.519,0,0,1,728.472,2741.431Zm-21.752-.135c.465-.119.935-.23,1.407-.332l-.034-.988.23.945q.716-.151,1.44-.277a.627.627,0,0,0-.2-.251,5.572,5.572,0,0,0-1.641-.575c-.657-.146-1.277-.246-1.36-.261A3.672,3.672,0,0,0,706.72,2741.3Zm7.256-1.151c.391-.026.784-.045,1.178-.06a.784.784,0,0,1-.207-.543A2.5,2.5,0,0,0,713.976,2740.145Zm16.555-.728a.142.142,0,0,1,.042-.018c-.24-.149-.412-.269-.417-.269S730.259,2739.21,730.531,2739.417Zm11.805,74.291q.058.009.115.023A.543.543,0,0,1,742.336,2813.708Zm-63.139-13.24c.089-.12.266-.025.5.182a.178.178,0,0,1-.1.029A.688.688,0,0,1,679.2,2800.468Zm79.29-14.96a1.959,1.959,0,0,1-.058.8A6.372,6.372,0,0,0,758.487,2785.508Zm.869-3.493.456-.56s-.074.222-.148.445-.161.439-.161.439Zm-.675-2.138.746.535-.843.2C758.777,2780.46,758.714,2780.075,758.681,2779.878Zm.87-.315c-.039,0-.022-.02.027-.044.128-.066.472-.13.571.359C760.051,2779.817,759.513,2779.96,759.551,2779.563Zm-1.758-6.351-.461-.759.7.836Zm-.86-2.439.166-.216a3.51,3.51,0,0,0-.567-1.705c-.273-.548-.448-1.05-.093-1.456a4.865,4.865,0,0,0,.53,1.722c.291.643.585,1.343.8,1.966Zm-1.574-2.718s.026-.166.043-.329.031-.329.031-.329c.13-.061.178.153.209.411a1.331,1.331,0,0,0,.156.663Zm2.067-3.8c.059-.248.124-.112.144.023.012.081.008.162-.022.162S757.486,2764.393,757.427,2764.256Zm-.454-.559a.163.163,0,0,0,.24-.042,5.036,5.036,0,0,0,.213.6,1.128,1.128,0,0,0-.033.164C756.92,2763.566,756.876,2763.632,756.973,2763.7Zm-1.314-.51c.616.66.515.042.495-.474.4.722.424,1.22.3,1.331a.106.106,0,0,1-.072.027C756.233,2764.071,755.973,2763.795,755.659,2763.187Zm-.9-1.248c-.311-.274-.648-.528-.648-.528l-.14-.255.228.2c.137.122.325.281.5.451l.7.679Zm1.292-.4c.107-.606.218-.872.75-.124-.26-.2.019.532-.1.783Zm-.367.241c-.621-.035-.355-.172-.272-.348l.648.737C755.721,2761.883,755.407,2761.826,755.686,2761.781Zm-.425-.52-.161-.167c.344.107.363.23.314.339Zm-3.091-2.164c-.132-1.173.706-.382,1.248-.056-.474-.28-.643-.164-.806-.049a.5.5,0,0,1-.3.125A.517.517,0,0,1,752.17,2759.1Zm-1.445-.337a.249.249,0,0,1,.19-.025c.117.015.221.03.183-.226-.185-.4-.432-.368-.568-.437a3.993,3.993,0,0,1,.566-1.387,4.271,4.271,0,0,0,.116,1.733l.135.069c.092.386.023.5-.1.5A1.574,1.574,0,0,1,750.724,2758.759Zm0,0a.158.158,0,0,0-.078.117C750.541,2758.685,750.6,2758.7,750.724,2758.759Zm2.962-1.281c-.128-.109-.264-.212-.264-.212.18-.184.271-.649.465-.707-.223.193.014.778.054,1.136Zm-1.058-.827.795.615a.216.216,0,0,1-.154.075C753.123,2757.341,752.926,2757.168,752.628,2756.651Zm-.845-.1c-.1-.227-.22-.446-.22-.446l.146.1.307.234.449.343c-.275-.146-.356.122-.469.217Zm-.616.017-.073.115C751.114,2756.6,751.139,2756.555,751.167,2756.569Zm-.028-.756.25-.031.173.324Zm.675-.548.051.077-.029,0C751.788,2755.344,751.793,2755.316,751.814,2755.265Zm-.209-.308.231-.625a1.043,1.043,0,0,1-.022.933C751.74,2755.157,751.669,2755.05,751.605,2754.957Zm-.44-.671.44.671-.007.021Zm-3.123-.651-.2.216-.144-.9s.305.247.609.495c.156.122.3.253.409.352l.184.163c-.126.029-.225.138-.356.138S748.272,2754,748.042,2753.635Zm4.129-.048-.343-.086-.448-.2.573.177.562.2Zm-1.962-.5c.027.014.056.04.084.056-.022.023-.039.032-.052.032S750.209,2753.134,750.209,2753.084Zm-.586-.446a2.357,2.357,0,0,1,.615.236.727.727,0,0,0-.029.21A3.7,3.7,0,0,1,749.624,2752.638Zm.615.236c.03-.1.064-.15.059.036A.394.394,0,0,0,750.238,2752.874Zm-1.373-.809c-.11-.086-.067-.115.015-.139a6.593,6.593,0,0,0,.743.712A1.029,1.029,0,0,1,748.865,2752.065Zm-1.013-1.528a4.018,4.018,0,0,0,1.191.867c.419.454.021.468-.162.523A14.6,14.6,0,0,1,747.851,2750.537Zm2.39,1.1a2.622,2.622,0,0,0-1.09-1.532,4.252,4.252,0,0,1,1.669.875c-.242-.094-.237.113-.257.318-.017.171-.054.342-.266.342A.456.456,0,0,1,750.242,2751.639Zm-3.677-.843c-.239.006-.46.012-.97-.458,0-.561.392-.526.836-.491a2.068,2.068,0,0,0,.635-.015,8.741,8.741,0,0,1-1.31-1.265l.8.554c.408.273.795.573.795.573a.035.035,0,0,1,0,.01l.007,0-.007-.005c0-.018,0-.033-.006-.056a8.821,8.821,0,0,0,.506.9,5.744,5.744,0,0,0-.822-.649c.358.6.048.549-.187.5s-.4-.106.31.537A1.079,1.079,0,0,0,746.564,2750.8Zm.5-.967a.608.608,0,0,0,.21-.084,2.24,2.24,0,0,0-.312-.177C746.927,2749.568,746.942,2749.632,747.067,2749.83Zm.246-.064c.036.1.047.048.04-.062a.483.483,0,0,1-.076.042C747.285,2749.752,747.3,2749.766,747.312,2749.766Zm.94.01a2.651,2.651,0,0,1,.9.331A5.619,5.619,0,0,1,748.253,2749.776Zm-1.225-.883c.161-.049.3.46.318.745C747.228,2749.379,747.112,2749.13,747.028,2748.894Zm-1.61-.559.152.04-.221-.222-.5-.468-.734-.682c.146-.1.372-.155,1.054.106a4.605,4.605,0,0,0,.587,1.46Zm-1.379-1.4.075.072-.076.061C744.038,2747.016,744.038,2746.975,744.039,2746.93Zm-.679-.59.627-.034c.318-.019.627-.02.627-.02l-.539.311Zm-3.157-.358c.332.145.729.141.5.336A2.459,2.459,0,0,0,740.2,2745.982Zm-1.079-1c.719.16,1.429.369.853.863a.518.518,0,0,0,.094.067C739.495,2745.6,738.9,2745.468,739.124,2744.98Zm2.992-.067.318.038c.161.018.318.042.318.042l-.368.361Zm-6.4-.553a3.216,3.216,0,0,1,.76.307h-.009A1.787,1.787,0,0,1,735.719,2744.36Zm-1.158-.546c.064-.183.616.244,1.158.546-.163-.029-.307-.031-.344.072Zm1.583-.1a.464.464,0,0,0-.261.16A.352.352,0,0,1,736.144,2743.71Zm-43.7-.212c-.391-.433.686-.245,1.515-.209a1.986,1.986,0,0,0-1.027.56Zm43.721.21-.018,0Zm2.406-1.313.463.174c.141.051.279.108.366.146-.16-.041-.132.184-.182.3A1.363,1.363,0,0,0,738.568,2742.395Zm.828.32a.357.357,0,0,1,.092.041Zm-4.064-1.82a2.89,2.89,0,0,1,.435.408A3.39,3.39,0,0,1,735.332,2740.894Zm.473.13c.4.094.416.169.323.227Zm-1.107-.481c.284.117.457.184.581.229-.03.007-.01.051.054.122A3.4,3.4,0,0,0,734.7,2740.543Zm.581.229a.284.284,0,0,1,.154.031c.04.017.066.035.049.035A.993.993,0,0,1,735.278,2740.773Zm-1.512-.212c-.864-.2-.592-.374-.166-.454s1-.035.7.194c-.04-.136-.116,0-.211.127-.067.092-.143.185-.224.185A.136.136,0,0,1,733.766,2740.56Zm-10.538-.358,1.118.011c.125.24-.293.253-.578.358h-.05C723.331,2740.572,723.089,2740.393,723.228,2740.2Zm-1.959-3.287a5.142,5.142,0,0,1,1.432.523.274.274,0,0,1-.246.161C722.177,2737.6,721.774,2737.219,721.269,2736.915Zm-1.72-.142a1.652,1.652,0,0,1,1.72.142,4.256,4.256,0,0,0-1.415.014C719.751,2736.873,719.65,2736.837,719.549,2736.773Z" fill="#0c4ca3"/>
    <path id="Forma_1" data-name="Forma 1" d="M714.227,2798.021v-1.375c-1.449-.063-5.058-.473-7.213-2.918-2.533-2.877-2.007-7.444-1.887-8.257a.814.814,0,0,1,.057-.24.769.769,0,0,1,.667-.48,10.191,10.191,0,0,1,1.08.009c-2.436-2.882-1.922-7.356-1.8-8.159a.811.811,0,0,1,.057-.241.769.769,0,0,1,.667-.481,10.661,10.661,0,0,1,1.076.008c-2.432-2.882-1.918-7.351-1.8-8.154a.81.81,0,0,1,.059-.245.772.772,0,0,1,.665-.477c.214-.012,5.27-.259,7.98,2.82a6.9,6.9,0,0,1,1.17,1.9,6.871,6.871,0,0,1,1.169-1.9c2.71-3.078,7.766-2.832,7.98-2.819a.775.775,0,0,1,.724.731c.122.831.622,5.275-1.8,8.144a10.661,10.661,0,0,1,1.076-.008.769.769,0,0,1,.668.48.8.8,0,0,1,.058.251c.122.831.622,5.28-1.805,8.15a10.193,10.193,0,0,1,1.08-.009.775.775,0,0,1,.724.731c.123.84.635,5.381-1.888,8.247-2.159,2.451-5.778,2.857-7.222,2.919v1.375a.769.769,0,1,1-1.538,0Zm3.09-9.411c-1.7,1.936-1.609,5.1-1.473,6.467,1.313-.075,4.3-.46,6-2.391,1.719-1.952,1.688-5.044,1.58-6.375C722.092,2786.352,719.025,2786.669,717.317,2788.61Zm-9.156,4.076c1.7,1.931,4.686,2.316,6,2.391.136-1.365.231-4.531-1.473-6.467s-4.774-2.257-6.1-2.3C706.473,2787.64,706.442,2790.733,708.161,2792.686Zm9.156-12.948c-1.7,1.936-1.609,5.1-1.473,6.467,1.313-.075,4.3-.46,6-2.391,1.719-1.952,1.688-5.044,1.58-6.375C722.092,2777.48,719.025,2777.8,717.317,2779.737Zm-9.156,4.075c1.7,1.931,4.686,2.317,6,2.391.136-1.365.231-4.531-1.473-6.467s-4.774-2.257-6.1-2.3C706.473,2778.768,706.442,2781.86,708.161,2783.813Zm9.156-12.941c-1.7,1.935-1.609,5.1-1.473,6.466,1.313-.075,4.3-.461,6-2.391,1.719-1.952,1.688-5.044,1.58-6.375C722.091,2768.613,719.025,2768.93,717.317,2770.872Zm-9.156,4.074c1.7,1.931,4.686,2.317,6,2.391.136-1.365.231-4.531-1.473-6.466s-4.774-2.258-6.1-2.3C706.473,2769.9,706.442,2772.994,708.161,2774.946Zm6.069-8.626v-4.05a.77.77,0,1,1,1.54,0v4.05a.77.77,0,0,1-1.54,0Zm3.69-.121v-2.99a.77.77,0,0,1,1.54,0v2.99a.77.77,0,1,1-1.54,0Zm-7.38,0v-3a.76.76,0,0,1,.76-.76h.02a.76.76,0,0,1,.76.76v3a.77.77,0,1,1-1.54,0Zm7.38-5.659v-.031a.77.77,0,0,1,1.54,0v.031a.77.77,0,0,1-1.54,0Zm-7.38,0v-.041a.76.76,0,0,1,.76-.76h.02a.76.76,0,0,1,.76.76v.041a.77.77,0,0,1-1.54,0Zm4.45-.17a.76.76,0,0,1-.76-.76v-.04a.77.77,0,1,1,1.54,0v.04a.76.76,0,0,1-.76.76Z" fill="#fff"/>
  </g>
</svg>
