<?xml version="1.0" encoding="utf-8"?>
<!-- Generator: Adobe Illustrator 24.2.1, SVG Export Plug-In . SVG Version: 6.00 Build 0)  -->
<svg version="1.1" id="Layer_1" xmlns="http://www.w3.org/2000/svg" xmlns:xlink="http://www.w3.org/1999/xlink" x="0px" y="0px"
	 viewBox="0 0 119.3 120.5" style="enable-background:new 0 0 119.3 120.5;" xml:space="preserve">
<style type="text/css">
	.st0{fill-rule:evenodd;clip-rule:evenodd;fill:#0C4CA3;}
	.st1{opacity:0.15;fill-rule:evenodd;clip-rule:evenodd;fill:#FFFFFF;enable-background:new    ;}
	.st2{fill-rule:evenodd;clip-rule:evenodd;fill:#FFFFFF;}
</style>
<path id="Shape_514_copy_2" class="st0" d="M114.1,61.3c0,30.7-24.9,55.6-55.6,55.6C27.8,116.9,2.9,92,2.9,61.3
	c0-30.7,24.9-55.6,55.6-55.6c0,0,0,0,0,0C89.2,5.7,114.1,30.6,114.1,61.3z M118.5,60.8c-0.1,0.6,0.7,0.4,0.8,0.4
	C119.1,60.3,118.3,60.8,118.5,60.8z M116,51.9l0.3,0.1l-1-1.2L116,51.9z M114.1,43.8c-0.5,0.6-0.2,1.3,0.1,2
	c0.5,0.7,0.7,1.5,0.8,2.4l-0.2,0.3L116,49c-0.3-0.9-0.7-1.9-1.1-2.8C114.5,45.5,114.2,44.7,114.1,43.8L114.1,43.8z M115.2,38.6
	c-0.4,0.4-0.8-0.8,0.2,1.1c0-0.1,0-0.2,0.1-0.2C115.4,39.2,115.3,38.9,115.2,38.6L115.2,38.6z M115.5,39.4
	C115.9,40.3,115.7,38.7,115.5,39.4L115.5,39.4z M113.6,35.6l0.9,0.9c0.2-0.4-0.2-1.4,0.1-1.1C113.9,34.4,113.7,34.8,113.6,35.6z
	 M112.3,35c0,0,0.1,0.1,0.2,0.2c0.1,0.1,0.2,0.2,0.2,0.2C112.8,35.4,112.7,35.2,112.3,35L112.3,35z M113.6,36.5l-0.9-1
	c-0.1,0.2-0.5,0.4,0.4,0.5C112.7,36.1,113.1,36.1,113.6,36.5L113.6,36.5z M113.7,37.3c0,0.7,0.2,1.6-0.7,0.7c0.5,1,0.9,1.4,1.1,1.2
	C114.3,39,114.3,38.3,113.7,37.3L113.7,37.3z M112.7,43.8c0,0,0,0.2-0.1,0.5s-0.1,0.5-0.1,0.5l0.6,0.6c-0.2-0.3-0.2-0.6-0.2-0.9
	C113,44.1,112.9,43.8,112.7,43.8L112.7,43.8z M110.6,28.7c-0.3,0.3-0.5,0.6-0.7,1c0,0,0.2,0.1,0.4,0.3l0.3,0.3
	C110.6,29.8,110.3,29,110.6,28.7z M109.9,29.7l-1.1-0.9C109.4,29.9,109.7,29.9,109.9,29.7z M110.9,35.5c0,0,0.5,0.4,0.9,0.7
	s0.9,0.8,0.9,0.8l-1-0.9c-0.2-0.2-0.5-0.5-0.7-0.6s-0.3-0.3-0.3-0.3L110.9,35.5z M107.7,24.4l0.5,0.1c0.2,0.1,0.5,0.1,0.5,0.1
	s-0.4-0.1-0.8-0.3s-0.8-0.2-0.8-0.2L107.7,24.4z M105.5,21.8c0.8,0.1,0.2-1.2,0.8-0.9c-0.7-0.6-1.5-1-2.3-1.2
	C104.7,20.2,105.3,21,105.5,21.8L105.5,21.8z M102.7,19.2c0.4,0.2,0.8,0.4,1.3,0.5C103.6,19.5,103.1,19.3,102.7,19.2L102.7,19.2z
	 M107.7,26.9c0.2-0.4,0.2-0.9,0-1.3l-0.3,0.9C107.5,26.6,107.6,26.7,107.7,26.9L107.7,26.9z M107.4,26.5L107.4,26.5
	c-0.3-0.5-0.5-0.8-0.6-1C106.8,25.6,107,25.9,107.4,26.5L107.4,26.5z M107.8,27c0,0-0.1-0.1-0.1-0.1C107.6,27,107.6,27,107.8,27
	L107.8,27z M109.9,32.2c-0.8-0.5-1.9-1.6-1.7,0.1C108.9,32.4,108.8,31.5,109.9,32.2L109.9,32.2z M107.3,28.1c0,0,0.2,0.3,0.3,0.6
	s0.3,0.6,0.3,0.6c0.2-0.1,0.3-0.5,0.7-0.3c0,0-0.3-0.2-0.6-0.5c-0.2-0.1-0.3-0.2-0.4-0.3S107.3,28.1,107.3,28.1L107.3,28.1z
	 M106.7,27.7l0.6,0.4l-0.2-0.4L106.7,27.7z M103.8,21.5c-0.6-0.3-1.2-0.7-1.7-1.2c0.4,0.7,0.9,1.3,1.4,1.9
	C103.8,22.2,104.4,22.1,103.8,21.5L103.8,21.5z M105.6,23.9c0,0-0.1-0.1-0.1-0.1C105.4,24,105.5,24,105.6,23.9L105.6,23.9z
	 M96.8,15.3v0.2C96.9,15.4,96.9,15.4,96.8,15.3L96.8,15.3z M103.6,22.4c0.2,0.4,0.6,0.7,1.1,0.8c-0.4-0.3-0.7-0.6-1-1
	C103.5,22.3,103.4,22.3,103.6,22.4L103.6,22.4z M101,18c0.1,0.3,0.3,0.7,0.4,1C101.4,18.6,101.2,17.9,101,18L101,18z M105.5,23.6
	C105.5,23.6,105.5,23.6,105.5,23.6C105.6,23.4,105.5,23.4,105.5,23.6L105.5,23.6z M105.5,23.6c-0.3-0.2-0.6-0.3-0.9-0.3
	c0.3,0.2,0.5,0.4,0.8,0.6C105.4,23.8,105.4,23.7,105.5,23.6L105.5,23.6z M92.1,17.8c0.4-0.3,0.9-0.3,1.3-0.1
	c0.6,0.2,1.1,0.8,1.3,1.4c1.3,0.4,2.2-1.9,2.2-3.6c-0.2,0.2-0.4,0.4-1.7-0.1c0.2,0.6,1.7,2.6,0.4,2.4c-0.5-0.2-0.9-0.5-1.1-1
	c0-0.3-0.1-0.7-0.3-1c0,0.6-0.6,0.5-1.3,0.4s-1.5-0.1-1.7,0.6c0,0,0.4,0.1,0.7,0.3s0.7,0.3,0.7,0.3C92.5,17.5,91.9,17.4,92.1,17.8
	L92.1,17.8z M98.7,17.2l0.5,0.3c-0.4-0.6-0.7-1.3-0.8-2c-0.9-0.4-1.3-0.3-1.5-0.1c0,0,0.5,0.5,1,0.9c0.2,0.2,0.5,0.5,0.7,0.7
	l0.3,0.3L98.7,17.2z M101,19.3c-0.8,0.2-2.1-0.4-2.1,0.7c1.2,1.1,1.2,0.4,2.2,0.8C99.2,19,102,21.1,101,19.3c0.4,0.3,0.7,0.6,1.1,1
	c-0.3-0.4-0.5-0.8-0.7-1.2c0,0,0,0.1,0,0.1l0,0h0c0,0.2,0,0.2-0.1,0.1c0,0,0,0-0.1,0C101.2,19.2,101.1,19.3,101,19.3
	c-0.4-0.7,0.1-0.2,0.3-0.1c0,0,0.1,0,0.1-0.1v0c0,0-0.5-0.4-1.1-0.8s-1.1-0.8-1.1-0.8C99.8,18.2,100.4,18.8,101,19.3L101,19.3z
	 M106,31.9c0-0.1,0.1-0.1,0.1-0.2C106,31.7,105.9,31.7,106,31.9L106,31.9z M105.9,30.8c0.3,0.1,0.6,0.3,0.8,0.6
	c0.1,0.6-0.3,0.2-0.5,0.4c0.4,0.2,1.2,0.8,0.9-0.4l-0.2-0.1c-0.3-1-0.2-2.7-0.1-2.6C106.3,29.4,106,30.1,105.9,30.8L105.9,30.8z
	 M103.6,25.1c0,0-0.1-0.1-0.3-0.2s-0.3-0.3-0.6-0.5l-0.8-0.7l0.2,1.3l0.3-0.3C103.1,25.7,103.3,25.1,103.6,25.1L103.6,25.1z
	 M96.9,14.8l0.8-0.4c0,0-0.4,0-0.9,0s-0.9,0.1-0.9,0.1L96.9,14.8z M94.5,13.1l0.5-0.5c0,0-0.2,0-0.4-0.1s-0.4-0.1-0.4-0.1L94.5,13.1
	z M14.4,87.4l0.5,0.4C14.7,87.6,14.5,87.5,14.4,87.4z M12.5,83.8l-0.4,0.1C12.4,83.9,12.5,83.9,12.5,83.8L12.5,83.8z M26.9,10.2
	c-1.2-0.1-2.7-0.3-2.1,0.3l0.7,0.5C25.9,10.6,26.4,10.3,26.9,10.2L26.9,10.2z M4.2,50.4c0.1-0.1,0.2-0.1,0.3-0.2
	c-0.2-0.3-0.4-0.5-0.6-0.7C4,49.7,4.1,50,4.2,50.4L4.2,50.4z M7.2,51.6l-0.7,1C6.8,52.3,7.1,51.9,7.2,51.6L7.2,51.6z M30,102.9
	c0,0,0.2-0.1,0.5-0.1s0.5-0.1,0.5-0.1C30.1,102,30.3,102.6,30,102.9L30,102.9z M67,2c-0.6-0.3-1.3-0.6-2-0.7C66,1.9,66.7,2.6,67,2
	L67,2z M6.3,90c0.2,0.2,0.4,0.3,0.7,0.3C6.7,90,6.4,89.8,6.3,90z M62.6,1.1c0.1,0.1,0.3,0.1,0.4,0.2c0.7-0.1,1.3-0.1,2,0
	C64.3,0.8,63.4,0.7,62.6,1.1z M100.9,89.8c0.1,0,0.1-0.1,0.2-0.1C101,89.7,101,89.7,100.9,89.8z M117,69.1c0,0.4,0,0.7-0.1,1.1
	C117,69.9,117,69.5,117,69.1L117,69.1z M84.6,6.7C85.2,6.9,84.7,6.6,84.6,6.7L84.6,6.7z M85.8,10.8c-0.2,0-0.3,0.1-0.4,0.2
	C85.5,10.9,85.7,10.8,85.8,10.8L85.8,10.8z M56.6,5.8L56.6,5.8C56.7,6,56.7,6,56.6,5.8L56.6,5.8z M85.3,7.4
	c-0.2-0.2-0.4-0.4-0.6-0.6C84.8,7,85.1,7.2,85.3,7.4L85.3,7.4z M85.3,7c0.2,0.1,0.3,0.2,0.4,0.3C85.9,7.2,85.9,7.1,85.3,7L85.3,7z
	 M83.8,6.3c0.3,0.1,0.6,0.3,0.9,0.5c-0.1-0.1-0.1-0.2-0.1-0.2C84.4,6.6,84.2,6.5,83.8,6.3L83.8,6.3z M65.5,114c0,0,0.1,0,0.1,0.1
	C66.1,113.7,65.9,113.7,65.5,114z M20.4,25.9C20.4,25.9,20.4,25.9,20.4,25.9C20.4,25.9,20.4,25.9,20.4,25.9L20.4,25.9z M19.6,27.8
	c-0.2-1.2,0.2-1.6,0.8-1.9c0,0-0.5-0.3-1.1-0.5l-1.1-0.5l0.7,1.5C19.2,27,19.6,27.8,19.6,27.8z M20.3,95.1L20,93.7
	c1.9,0.4,2.3,1.5,2.3,0c-1,0.7-1.9-0.1-2.7-1.1c-0.4-0.5-0.8-0.9-1.3-1.2c-0.4-0.3-1-0.4-1.4-0.1l-0.1-1c0.1,0.2,0.3,0.2,0.4,0.4
	c0-2-2.2,0-3.1-2.1c-0.2-0.8-0.2-1.4,0.3-1.1L13,86.2c-0.2-0.5,0.2-0.6,0.4-0.1c0,0-0.1-0.1-0.2-0.3s-0.3-0.5-0.5-0.8
	c-0.3-0.6-0.7-1.1-0.7-1.1l0.1,0c-0.6-0.3-1.2-0.6-1.8-1c0-0.8,0.4,0.2,0.6-0.1l-0.6-0.6c-0.2-0.1-0.3-0.3-0.4-0.4s-0.2-0.2-0.2-0.2
	c0.2-0.4,0.5-0.4,0.9-0.1c0.4,0.3,0.7,0.7,0.9,1.2c0.8-1.1,0.6-1.3,0.1-1.7c-0.8-0.6-1.1-1.5-0.9-2.4c0,0,0.1,0.1,0.1,0.2
	s0.2,0.2,0.3,0.4c0.2,0.3,0.4,0.6,0.4,0.6c0.4-0.5,0.6-1.1,0.5-1.7c-0.1-0.7-0.1-1.4,0-2c-0.2,0.2-0.4,1.1-0.8,1.8s-0.8,1.2-1.4,0.5
	c0-0.7-0.3-1.3-0.8-1.7c0.8-0.3,0.4-1,0.1-2l1.1-0.2c-0.6-1-1.1-0.8-1.8-1.3c-0.2-1.2,0.6-1.7,1.3-2.1c-0.1-1-0.4-0.6-0.7-0.2
	s-0.8,0.7-1.1-0.4c0-0.4,0-0.8,0-1.2c0-0.4-0.1-0.7-0.2-1.1c-0.2-0.7-0.7-1.5-1.1-2.5c0.3-1.2,0.7,0.1,1-0.3l-1-1
	c0-0.3,0.3-0.2,0.4-0.2c-0.4-0.9-1.2,0-1.5-1.4c-0.6-0.2-0.2-0.9,0.2-1.8C6.2,60,6.6,59,6,58.1c0.4-0.4,0.7,0.2,1.1,0.1
	c-0.4-1.2-0.5-1.7-0.7-2.2c-0.3-0.7-0.5-1.3-0.9-2l0.5-0.8c0.2-0.4,0.5-0.8,0.5-0.8c-1.1,1.1-1.8-0.6-2.4-2.2
	c-0.4,0.3-0.8,0.6-1.1,0.9c0,0-0.1-0.6-0.1-1.2s-0.1-1.2-0.1-1.2c0.2-0.2,0.6,0.1,1,0.6c-0.1-0.2-0.1-0.3-0.2-0.5
	c0.6-0.7,1.2-0.1,1.7,0.6c-0.3,0.2-0.6,0.4-0.9,0.6c0.4,0.7,1.1,1.2,1.9,1.4c-0.1-0.2-0.2-0.5-0.2-0.8C6.3,50.9,6.5,51,6.7,51
	c0-0.3-0.1-0.5-0.3-0.7L7.7,50l-0.5-0.2c0,0,0.3-0.6,0.7-1.3c0.2-0.3,0.4-0.6,0.5-0.9s0.2-0.4,0.2-0.4c-0.2-0.6-0.4-1.1-0.6-1.7
	c-0.2-0.6-0.4-1.2-0.5-1.9c-0.2-0.7-0.3-1.4-0.3-2.1c0-0.8,0.1-1.6,0.3-2.4C8.1,40.4,9,40,10,40.5c-0.7,0.2-0.8,0.8-0.9,1.6
	c0,0.4,0,0.8-0.1,1.2c0,0.4-0.1,0.8-0.3,1.2c0.4-0.8,0.8-0.4,0.9-0.2c0,0,0-0.2,0-0.5s0-0.7,0-1.1c0-0.8,0.1-1.6,0.1-1.6
	c0.8,0.4,0.9-0.3,1.5-0.9c-0.9-0.1-1-0.7-0.8-1.5c0.3-0.8,0.5-1.6,0.7-2.4c0.6,0.2,1,0.8,0.2,2c1-0.4,0.7-1.1,0.5-1.9
	s-0.5-1.5,0.4-1.9c-0.2,0.3-0.3,0.4-0.2,0.7c0-0.6,0.3-1.2,0.7-1.6c0.4-0.4,0.8-0.6,0.9-0.3l-0.2,0.3c0.4-0.5,0.8-1.1,1.2-1.8
	s0.9-1.4,1.3-2.1c0.8-1.4,1.3-2.7,0.8-3.3c0.5,0.5,1,1.1,1.4,1.7c0,0-0.1-0.4-0.2-1s-0.2-1.4-0.4-2.3s-0.2-1.7-0.2-2.4
	s-0.1-1.1-0.1-1.1c0.6,0.7,1.3,1.3,2.1,1.8c0.8,0.7,1.4,1.5,1,2.4c0.8-0.4,1.4-1,1.7-1.8c-0.4,0.1-2.1-0.7-1.8-1.1
	c0.6,0,1.2,0,1.7-0.1c0.6-0.2,1.2-0.3,1.8-0.4c-0.6,0.2-1.5-1.8-0.7-2.4c0.1,0.3,1.4,1.5,1.3,1.9c0,0,0.1-0.8,0.2-1.5
	s0.3-1.5,0.3-1.5c-0.2,0.6,1,1.4,1.7,1.5c-0.2-0.1,0.2-0.4,0.7-0.7c0.5-0.3,0.9-0.6,1.3-0.9l-1.1,0.2c0.9-0.5,1.4-1.5,1.4-2.6
	c0-1.1,0.6-2.1,1.5-2.6c-0.1,0.5,0.7,2.6,1.9,2.2c0-1.2,0-2.4,0.2-3.5c0.1-1.5,0.8-2.9,1.8-4L35,8.7L35.7,8c0.2-0.2,0.4-0.3,0.5-0.5
	s0.2-0.2,0.2-0.2c-0.3,0.9-0.8,2.5-1.4,4.1s-1.1,3.1-1.5,4.1c1.1,0,0.6,0.5,1.8-0.2c0.7,0.3-0.3,1.1-0.7,1.3c0,0,0.8-0.3,1.5-0.6
	c0.4-0.1,0.8-0.3,1.1-0.4s0.5-0.2,0.5-0.2c-0.3-0.5,0.1-1.1,0.6-1.6c0.5-0.5,1-1,0.8-1.4c0,0-0.2,0.2-0.5,0.4s-0.6,0.6-1,0.9
	l-1.4,1.3c-0.3-0.8-0.2-1.7,0.3-2.5c0.3-0.5,0.6-1,1.1-1.4c0.5-0.4,1-0.7,1.6-0.9c0.8,0.2,0.3,2.2,0.5,2.6c0.2-0.4,0.6-0.7,1-0.9
	c0.3-0.3,0.7-0.4,1.2-0.4l-0.8,0.9c0.6-0.1,1.2-0.5,1.5-1c0.4-0.6,1.2-0.8,1.9-0.5c0.6-0.1,2,1.1,1.9,0.4c-1.2-1.1-2.5-5.2-2.1-6.4
	c0.1,0,1,0.2,1.9,0.4c0.8,0.1,1.6,0.4,2.3,0.8C49.3,6.6,49,7.3,48.8,8s-0.5,1.3,0,1.7c0.1-0.4,0.3-0.7,0.6-1
	c0.6,0.2-0.1,1.1,1.2,0.7c0-1.2,2.6-0.2,0.4-1.1c1.2-0.5,1.4,0,2.8-0.1c-0.2-0.6,0-1.3,0.5-1.7c0.5-0.7,1.2-1.2,1.9-1.5
	c0,0.3,0.2,0.7,0.4,0.9c0.7,0,1.3,0.1,1.8,0.1s1.1,0.2,1.6,0.3s1,0.2,1.5,0.2c0.6,0.1,1.1,0.2,1.7,0.2C63.4,7,64.5,7.4,64,7.9
	c0.4-0.3,1-0.5,1.5-0.5c1.3,1.2-1.7,0-0.7,1.4c0.2-0.7,2-0.8,3.2-1c-0.1-0.6-0.7-0.8-1.4-0.7c-0.7,0.1-1.4,0.2-2.1,0.4
	c0.2-0.9,0.7-1.6,1.5-2c0.5-0.3,1-0.6,1.6-0.7c0.6-0.2,1.3-0.3,2-0.3c1.1,0,1.3,0.3,1.2,0.6s-0.3,0.5-0.1,0.4
	c0.7,0.2,1.5,0.3,2.3,0.2c0.5-0.1,1-0.2,1.5-0.4c1.1-0.5,2.3-0.3,3.2,0.5c1,1.4-0.6,1.8-0.5,2.6c-0.7-0.1-1.4-0.4-1.9-0.8
	c-0.5-0.4-1-0.7-1.5-0.9l1.2,0.8c-0.8,0.2-1.6,0.1-2.3-0.4c0.4,0.4,0.9,0.7,1.4,0.8c0.3,0.1,0.7,0.3,1.1,0.4s0.8,0.3,1.3,0.5
	s0.9,0.3,1.4,0.5S78.5,9.8,79,10c0.8,0.4,1.6,0.8,2.2,1.4c0.6-0.1,1.6,0,1.4-0.5l-0.9-0.3c-0.5-1.1,2.1-0.2,1.2-1.1
	c0.8,0,1.5,0.1,2.3,0.2c0.4,0.1,0.8,0.2,1.2,0.4c0.4,0.2,0.8,0.5,1.1,0.8l-0.2,1.1c-0.2-0.6-0.7-1.1-1.3-1.1c0.5,0,0.9,0.7,1.4,1.2
	c0.2,0.3,0.5,0.5,0.8,0.7c0.3,0.2,0.7,0.2,1,0c0,0-0.2-0.3-0.3-0.7c-0.2-0.4-0.4-0.7-0.4-0.7c0.7,0.1,1.6,0.2,2.4,0.3
	c0.9,0.1,1.7,0.5,2.3,1.1c0-1.3-0.4-0.1-0.7-1.9c0,1.9-3.7-2.4-3.1-0.1c-0.1-0.7-0.4-1.3-1-1.8c-0.6-0.5-1.1-1.1-1.4-1.8
	c-0.1,0.4,0.2,0.9-1,0.1c-0.1,0.1-0.3,0.1-0.4,0.1c0,0-0.1,0-0.1-0.1c0,0,0,0.1,0.1,0.1c-0.1,0-0.1,0,0,0c0.2,0.2,0.4,0.5,0.4,0.8
	c-0.7,0.2-1.4,0.1-2-0.1c-0.6-0.2-1.3-0.3-1.9-0.3c-0.7-0.5,0.5-0.2,0.2-0.8c0,0-0.3,0-0.7,0.1s-0.7,0.1-0.7,0.1
	c0.2-0.8-1.6-2.1,0.4-1.8l-1.7-0.7c-0.9-0.8-2-1.3-3.2-1.4c-0.8-0.4-2.3,0.3-1.4-0.1L73.4,3L72,3l0-0.2c-1.4-0.3-2.9-0.4-4.4-0.4
	c-1.6,0-3.2-0.3-4.6-1.1c-0.5,0.1-1,0.1-1.5,0.2c-0.7,0-1.3,0-2-0.1l-0.3-0.7c-0.8,0-1.6,0-2.4-0.1C56,0.4,55.3,0.4,55,0.8
	C54.6,0.3,54,0,53.4,0c-0.4,0-0.7,0-1.1,0c-0.4,0-0.8,0.1-1.2,0.2c-0.8,0.2-1.6,0.3-2.4,0.5c-0.7,0.2-1.3,0.3-2,0.4L46.9,2
	c-0.7,0.1-1.5,0.3-2.2,0.6C44.4,2.7,44,2.9,43.6,3c-0.4,0.2-0.8,0.4-1.2,0.6l0.3,0.7c-0.8,0.5-1.8,0.8-2.8,0.8
	c-0.6,0.1-1.2,0.1-1.8,0.2C37.6,5.6,37,5.7,36.4,6c0.2-0.4,0.7-0.6,1.1-0.5c-0.8-0.1-1.6,0-2.3,0.3c-0.7,0.4-1.4,0.8-1.9,1.3
	c-0.6,0.5-1.2,1-1.8,1.4c-0.6,0.4-1.3,0.7-2,0.7c-0.3,0.5-0.8,0.8-1.4,0.8c0,0,0.1-0.1,0.1-0.1c-0.1,0-0.2,0.1-0.2,0.1
	c-0.3,0-0.7,0.1-1,0.1c0.3,0,0.6,0,0.9-0.1c-0.6,0.4-1.1,0.9-1.6,1.4L25.5,11c0,0-0.1,0.1-0.1,0.1c-0.8,0.1-0.3,0.7,0.4,1
	c-0.2,0.3-0.4,0.6-0.5,1c-0.4-0.3-1-0.2-1.3,0.3c0,0,0,0.1-0.1,0.1c-0.3,0.5-1,0.7-1.5,0.5c-0.3,0.7-0.7,1.4-1.2,1.9
	c-0.6,0.8-1,1.6-0.7,2.4c-0.2-0.1-0.4-0.1-0.1-0.3c-0.8,0.3-1.4,0.9-1.7,1.7l-1-0.6c0,0-0.1,0.6-0.1,1.2c-0.1,0.6-0.1,1.2-0.1,1.2
	c-1.2,0.3-1.9,0.4-1.7-1c-0.2,0.5-0.3,1-0.6,1.5c-0.1,0.4-0.3,0.6-0.4,0.8c-0.3,0.7-0.6,1.4-0.7,2.1l-0.5-0.5
	c-0.5,0.7-0.5,2.2-1.3,2.3c-0.7,0.3-1.3,0.8-1.8,1.4c-0.7,0.9-1.4,1.9-2.1,2.9c-1.3,2.3-2.7,4.6-4.3,6.8c1.2,0,0.7,0.4,0.2,0.9
	c-0.5,0.5-1.2,1.2-0.4,1.6c-0.6,0.1-1.1,0.6-1.2-0.3c-0.2,1-0.6,1.9-1,2.8c-0.4,0.8-0.5,1.7-0.1,2.4C1,45.2,1,44.3,0.7,44.5
	c0.2,0.3,0.1,0.7-0.2,1c-0.3,0.2-0.3-0.4-0.4-0.9c-0.1,0.5-0.2,1-0.1,1.5c0.1,0.4,0.2,0.7,0.5,1c0.5,0.5,1.2,0.8,1.8,1
	c-0.4,0.4-0.7,0.8-0.8,1.4c0,0.5,0.2,1,0.6,1.4c-0.5,0.3-1.2,0.9-1.1-0.6C1,50.6,0.9,51,0.8,51.5c-0.1,0.3-0.1,0.5-0.2,0.8
	c-0.1,0.3-0.1,0.6-0.2,0.9c-0.2,1.2-0.2,2.3,0.4,2.4c-0.2,0.4-0.3,0.9-0.1,1.4c-0.1,0.9-0.2,1.5-0.2,2c0,0.6-0.1,1.3,0,1.9l0.2-0.5
	c1.3,0.7,0.3,1.5,0.5,3l-0.2,0c-0.2,0.6-0.3,1.1-0.3,1.7c0,0.2,0,0.5,0.1,0.7c0.1,0.2,0.1,0.5,0.1,0.7c0,0.6-0.1,1.2-0.3,1.8L1.6,68
	c0.9,0.1,0.8,0.8,0.5,1.8c-0.3,1-0.6,2.2-0.1,3.1l0.4-0.8c0.4,0.5-0.1,1.3-0.6,2.2s-1.2,1.9-1.2,2.4c-0.1,0.3-0.4-0.3-0.6-0.6
	c-0.3,3.1,1.2,0.1,2,2.1c-0.5,0.6-1.7-0.1-1.3,1.4c-0.1,0.4,0.7,1.3,1.5,2.3c0.9,0.9,1.4,2,1.5,3.3C4,84.6,4.3,84.1,5,84.8
	c0.3,0.9,0.5,1.8,0.6,2.8c0.2,1,0.6,2,1.6,2.2c0,0.2-0.1,0.3-0.2,0.4c0.5,0.4,1,1.2,1.7,1.8c0.5,0.6,1.1,1,1.8,1.2
	c-0.4,0.6-0.4,1.3,0,1.9c0.5,0.7,1,1.3,1.7,1.8c0.6,0.4,1.2,0.9,1.7,1.5c0.4,0.3,0.4,0.8,0.1,1.2c-0.1,0.1-0.1,0.1-0.2,0.2
	c0,0,0.6,0.7,1.2,1.3s1.3,1.2,1.3,1.2l-0.3,0.1c0.5,0.7,1.2,1.2,2,1.6c0.5,0.2,1.1,0.3,1.6,0.3c0.3,0.5-0.2,0.4-0.3,0.5
	c0.7,0.9,1.5,1.8,2.4,2.4c1,0.5,2,0.8,3.1,0.9l-0.3,0.9c0.5,0,1.2,1,2.4,2.1c0.3,0.3,0.6,0.5,0.9,0.8c0.3,0.3,0.7,0.5,1.1,0.7
	c0.7,0.5,1.5,0.8,2.4,1c-0.1,0.1-0.3,0.2-0.5,0.2c1.9,0.4,3.6,1.9,5.3,2.9c1.7,1.1,3.2,1.6,4.4,0.3c0,0,0.6,0,1.3,0
	c0.6,0,1.3-0.1,1.3-0.1c-1.4-0.6-1.2-0.9-0.8-1.1s1.1-0.5,0.6-1c0.6,0.1,1.2,0.4,1.6,0.9c0.3,0.4,0.4,0.8-0.4,0.6l-0.2-0.2
	c-1,1.5,3.6,1.5,3.2,2.6c3,0.6,6,1.1,9,1.5c3,0.4,5.9,0.5,8.9,0.2c0,0-0.2-0.3-0.4-0.6c-0.2-0.3-0.4-0.6-0.4-0.6s0.1,0,0.3,0
	s0.4,0,0.7-0.1l1-0.1c0.6,0.2,0.8,0.9-0.6,1.1c0.9,0.6,2.3-0.9,2.3-1.2c1.4,0,1.2,0.4,0.8,0.9s-1.2,0.8-0.8,0.7l1.2-0.3l-0.3-0.1
	c0.4-0.4,0.6-0.7,0.9-0.9c0.5-0.3,1-0.6,1.6-0.6c1.1,0,0.7,0.7,1.2,0.6c0,0.1,0.2,0.1,0.7-0.1c0.1,0,0.3,0,0.4-0.1
	c0.2-0.1,0.5-0.1,0.9-0.2c0.6-0.1,1.2-0.3,1.2-0.3l-1.3-0.7c0.9-0.8,2.3-0.6,0.8-1.4c1.1,0.6,3.4,0.1,5.5-0.8
	c1.1-0.4,2.1-0.9,2.9-1.3c0.5-0.3,1.1-0.5,1.7-0.7c0.3-0.3,0.5-0.6,0.8-0.9c0.3-0.3,0.6-0.5,0.9-0.8c0.7-0.5,1.4-0.9,2.2-1.4
	c-0.5,0.1-1.4-0.8,0.1-1.5c0.4,1.2,1.2,1,2.1,0.6c0.9-0.6,2-0.9,3.1-0.8c-0.8-0.1,0.1-0.9,0.8-1.7s1.4-1.6,0.2-1.6
	c1.2-0.8,0.7,0.6,1.8,0.4c0.5-0.7,1.1-1.4,1.7-2c0.3-0.3,0.7-0.6,1-0.9s0.7-0.6,1.1-0.9s0.8-0.6,1.1-0.9s0.7-0.7,1.1-1
	c0.7-0.7,1.4-1.5,2-2.4c-0.2-0.2-1,0-0.8-1c0,0,0.2-0.1,0.4-0.1s0.6-0.2,0.9-0.3c0.6-0.2,1.3-0.4,1.3-0.4c0.1-0.4,0-0.8-0.2-1.2
	c-0.1-0.4,0-0.8,0.8-1.1c-0.3,0-0.8,0.1-0.6-0.4c2.8-2.9,4.5-6.8,5.8-10.6c1.3-3.9,2.4-7.7,4.5-11.6c-0.8,1-0.7,0.3-0.6-0.6
	c-0.2,0.5-0.8-0.1-1.2-0.1c0,0,0.1-0.2,0.3-0.5l0.6-1.1c0.2-0.4,0.4-0.8,0.6-1.1s0.2-0.5,0.2-0.5c-0.6-0.4-0.5-1.3-0.5-2.1
	s0-1.7-0.5-1.9l0.2,1.1c-0.7-0.7-1.4-0.3-2.2,0.3c-0.8,0.6-1.7,1.3-2.6,1.1c0.3,0.3,0.4,0.8,0.2,1.3c-0.2,0.5-0.5,1-0.8,1.4
	c-0.6,1-1.2,2.1-0.3,3.4c-0.4,0.4-0.5-0.6-0.9-0.4c0.6,0.7,0.6,1.5,0,2.7l-0.1-0.2c-0.2,0.8-0.4,1.6-0.7,2.4
	c-0.2,0.7-0.5,1.3-0.9,1.9c-0.3,0.6-0.7,1.3-1.1,1.9s-0.8,1.5-1.4,2.4l0.9,0.1c-0.3,0.5-0.7,0.9-1.2,1.1c0.7,1.5,1.1-2.3,2-0.8
	c-0.6,0.2-1,0.6-1.3,1.1c-0.4,0.6-0.8,1.3-1.1,1.9c-0.3,0.6-0.7,1.2-1.2,1.8c-0.3,0.5-0.9,0.7-1.4,0.6c-0.8,1.1,1.1,0.2,0.3,1.3
	l-0.7,0l0.4,0.7c-0.4,0.6-1.2,0.8-1.8,0.5c0.2-0.2,0.3-0.5,0.4-0.8c-0.6,0.4-1.1,1-1.3,1.6c-0.2,0.5-0.5,0.9-0.8,1.3
	c0,0,0.3-0.2,0.5-0.4s0.5-0.4,0.5-0.4c-0.5,0.8-1.1,1.7-1.7,2.4c-0.7,0.8-1.3,1.6-2,2.3c-0.3,0.4-0.7,0.8-1,1.1s-0.7,0.7-1,1.1
	c-0.6,0.7-1.3,1.5-1.8,2.3l0.5,0.1c-0.3,0.5-0.6,0.9-1.1,1.2c-0.3,0.2-0.6,0.4-0.9,0.5c-0.9,0.3-1.7,0.8-2.4,1.5l0-0.1
	c-0.3,0.7-0.9,1.4-1.6,1.7c0.4-0.8-1.7,0-1.1-1c-1.1,1.1-1.3,1.4-1.4,1.8c-0.1,0.6-0.3,1.3-0.6,1.8l-0.7-0.4c-0.2,0.9-0.8,1.6-1.6,2
	c0.9-1.1-1.3-0.5-0.4-1.8c-0.7,0-1.5,0.2-2.1,0.5c-0.5,0.3-1,0.6-1.4,0.9c-0.8,0.6-1.5,1.1-2.5,0.3c-0.4,1.1,0.3,1.1,1.1,0.9
	c0.8-0.2,1.5-0.6,1.2-0.3c0.4,0.2,0.3,0.6-0.1,1c-0.4,0.4-1,0.7-1.6,0.9c-0.7,0-1.4-0.2-1.9-0.6c-0.4-0.2-0.9-0.4-1.3-0.4
	c-0.3,0-0.5-0.1-0.8-0.1c-0.3,0-0.6,0-0.9,0.1c0.2-0.1,0.2-0.2,0.5-0.2c-0.5-0.1-1,0.1-1.4,0.4c-0.2,0.1-0.5,0.2-0.7,0.3
	c-0.3,0-0.6,0-0.9-0.1c-0.4,1.2-1.5,0.2-1.5,1.6l2.3-0.8c-0.7,0.4-1.3,0.9-1.9,1.4c-0.8,0.6-1.8,0.8-2.8,0.5c0.3-0.4,0.7-0.8,1.2-1
	c-0.7-0.4-1.2,0.4-2,0.1c0-0.7,0.7-0.9,1.6-1c0.5-0.1,0.9-0.2,1.3-0.3c0.4-0.1,0.8-0.4,1.2-0.7c-0.5-0.1-1.1,0-1.5,0.4
	c-0.5,0.2-0.8,0.3-0.5-0.5c-0.2,0.8-1,1.2-1.8,1c-0.8-0.2-1.7,0-2.4,0.6l0.1-0.9c-0.4,0.3-0.8,0.5-1.3,0.6l0.9-1.1
	c-0.6,0.4-1.4,0.4-2,0.1c-0.6-0.3-1.3-0.5-2-0.3c1.4,0,1.5,0.3,1.5,0.6s-0.3,0.8,0.3,1.1c-3.6,1.1-2-2.2-5.8-2.1
	c0.5-0.1,1.9,0.7,1.1,1c-0.8-0.2-1.5-0.6-2-1.2c-2.5-0.1,0.3,0.9-0.9,1.3c-0.7-1.1-1.3,0.2-2.5,0.4l0.2-0.9
	c-0.4-0.2-0.9-0.3-1.4-0.2c-0.2,0.1-0.4,0.2-0.5,0.5c-0.2,0.4-0.5,0.8-1.7,0.1l1.4-0.9h-1.2c-0.1,0-0.2,0-0.2,0l0.5-0.9
	c-0.6,0.1-1.2,0.2-1.8,0c-0.5-0.2-1.1-0.4-1.5-0.7c0.1,0.7-0.7,1.4-1.9,1c-0.7-0.8,0.8-0.6-1-1.1c0.6-0.4,1.2-0.8,1.7,0.2
	c0.2-0.2,0.6-0.4,0.7-0.6c-0.7-0.8-2.2-0.9-2.8-1.2c0.2,0.1,0.4,0.3,0.6,0.4c0,0-0.7,0-1.5,0.1h-1.5c-0.2-0.5,0.2-0.6,0.6-0.7
	c-0.6,0-1.2-0.1-1.8-0.2c0.5-0.6,0.8-1.2,1.9-1.1l-0.4-0.1c-0.2,0-0.6-0.1-0.9-0.1l-1.3-0.2c0-0.4-0.7-1.3-0.3-1.4
	c-0.7-0.5-1.5-0.8-2.3-0.8c-0.9-0.1-1.8-0.5-2.5-1.2c-0.3,0.1-0.5,0-0.8-0.1c-0.3-0.3-0.6-0.6-0.9-0.9c-0.3-0.3-0.6-0.7-0.8-1
	c-0.3-0.3-0.6-0.6-1-0.8c-0.4-0.3-0.9-0.5-1.4-0.6l0-0.9c0-0.4,0-0.9,0-0.9c-0.7-0.4-0.7,0.1-0.8,0.6c-0.1,0.5-0.3,0.9-1.5,0.1
	c-1.7-1.1,0.2-1.3,0-2c-0.7-0.1-1.4-0.3-2.1-0.6c-0.8-0.4-1.4-1.1-1.5-2C19.6,94.4,20,94.7,20.3,95.1z M9.8,78.3
	c0.2,0.2,0.4,0.4,0.6,0.6c0.2,0.2,0.3,0.5,0.1,0.7C9.4,79.5,9.7,79,9.8,78.3L9.8,78.3z M6.5,47.7c0.1,0.5-0.1,1-0.5,1.2
	C6,48.5,6.2,48,6.5,47.7L6.5,47.7z M78,4.7C78,4.8,78,4.8,78,4.7C77.1,4.1,77.4,4.4,78,4.7L78,4.7z M79.8,5.8c0.1,0,0.2-0.1,0.2-0.2
	c0,0,0-0.1,0-0.1c-0.4,0.1-0.8,0-1.1-0.2C79.1,5.6,79.5,5.9,79.8,5.8L79.8,5.8z M72.7,118.6l-0.4-0.1C73,118,72.8,118.3,72.7,118.6
	L72.7,118.6z M6.9,51.4c-0.2,0.1-0.3,0.1-0.5,0.1C6.5,51.7,6.7,51.7,6.9,51.4z M29.8,102.9C29.8,102.9,29.8,103,29.8,102.9
	c0.1,0,0.1,0,0.2-0.1L29.8,102.9z M49.5,10c-0.3,0-0.6-0.1-0.8-0.3C48.7,9.9,48.9,10.1,49.5,10z M90.5,9.4c0,0-0.3-0.1-0.6-0.3
	s-0.7-0.2-0.7-0.2c0.4,0.2,0.7,0.5,0.9,0.9C90.2,9.6,90.1,9.2,90.5,9.4L90.5,9.4z M96.2,20.5c0.2,0.1,0.3,0.3,0.5,0.3l0.2-0.3
	C96.4,20,95.7,19.9,96.2,20.5L96.2,20.5z M90,12.5c-0.3,0.7,0.5,0.9,1.3,1.3c0,0-0.1-0.1-0.1-0.1C92,13.1,91,12.8,90,12.5L90,12.5z
	 M91.5,13.9c0.3,0.1,0.5,0.3,0.7,0.5C92.5,14.1,91.9,14.1,91.5,13.9L91.5,13.9z M82.5,6.4c0.3,0.4,0.6-0.7,0.7-0.4
	c0.4-0.3-0.4-0.4-1-0.3C81.7,5.9,81.3,6.1,82.5,6.4L82.5,6.4z M89.2,14.9l0.2-0.9l-0.8,0.3L89.2,14.9z M83.6,10.9l1.1,0.9
	c0.1-0.1,0.3-0.2,0.5-0.1C84.5,11.2,83.7,10.6,83.6,10.9L83.6,10.9z M85.2,11.7c0.3,0.2,0.7,0.4,1.1,0.4
	C85.9,11.9,85.6,11.8,85.2,11.7L85.2,11.7z M87.5,14.1l-0.2-0.4l-0.8-0.6l0.5,0.5C87.2,13.9,87.5,14.1,87.5,14.1z M69.3,5.9l-1.6,0
	c-0.2,0.3,0.2,0.5,0.8,0.5C68.9,6.2,69.5,6.2,69.3,5.9L69.3,5.9z M73.2,9.3c-0.2-0.2-0.4-0.5-0.4-0.8l-0.3,1.1L73.2,9.3z M69,8.6
	c-0.2,0.3-2.2,0.5-0.4,0.8C68.7,9.1,70.2,9.1,69,8.6L69,8.6z M46.7,7.4l0.4-0.1l-0.4-1.8L46.7,7.4z M30.8,18.8
	c1.6-0.5-0.3-1.2,1.3-1.5c0.1-0.6-1.3,0.3-1.1-0.3C30.3,18,29.7,18.1,30.8,18.8L30.8,18.8z M30.9,17.1c0.1-0.2,0.2-0.3,0.3-0.5
	C31.1,16.7,31,16.9,30.9,17.1L30.9,17.1z M118.4,64.7c0,0,0.1-0.3,0.2-0.6s0.2-0.6,0.2-0.6l-0.6,0.8L118.4,64.7z M117.1,62.3
	l1.2-0.3l-1-0.7C117.4,61.6,117.3,62,117.1,62.3L117.1,62.3z M11.1,74.8h-0.3c-0.2,0.3-0.3,0.6-0.1,1L11.1,74.8z M16,87.9l-0.1-0.2
	l-0.6,0.9L16,87.9z M24.4,96.2c-0.3-0.4-0.9-0.6-1.2-1C24.1,95.8,23.6,97.2,24.4,96.2L24.4,96.2z"/>
<path id="Shape_2_copy_3" class="st1" d="M106.3,74c0-2.1-0.2-4.3-0.5-6.4c1.5-9.4-0.1-19.4-6.2-27.4c-2.3-2.9-4.9-5.5-8-7.6
	c-3.1-4.6-6.8-8.8-10.9-12.5C64.2,5.7,47.2,8.8,34,16.2c-6.4,3.5-11.9,8.5-15.9,14.6c-5,6.4-8.1,15.5-9.3,24.4
	C7.2,66.4,9.8,81.2,19,91.7c0.3,0.3,0.5,0.6,0.8,0.8c0.5,0.7,1,1.4,1.6,2c5.3,6.2,12.8,10.1,20.9,10.9c0.4,0.1,0.7,0.2,1.1,0.3
	c7.4,1.9,15,2.7,22.6,2.1C77.3,107.2,106.6,104.1,106.3,74z M98.5,42.8c4,5.1,6.1,11.5,6,18c-1.8-7.1-4.5-14-8.1-20.4
	C97.1,41.2,97.9,41.9,98.5,42.8z M10.1,68.9c-0.6-4.4-0.5-8.9,0.2-13.3C9.8,64.4,11,75.2,15,84.3C12.5,79.5,10.8,74.3,10.1,68.9
	L10.1,68.9z M41.8,103.8c-3-0.9-5.9-2-8.8-3.3c-4.9-2.2-9.4-5.4-13.1-9.3C15.5,85,13.4,77.1,12.4,70c-2.1-14.9,0.8-27.1,6.9-36.4
	c3.4-4.4,7.7-7.6,12.8-8.2c1-0.1,0.4-3.2-0.6-3c-0.6,0.1-1.3,0.2-1.9,0.4c12.9-9.6,30.6-14.7,48.3-1.3c3,2.3,5.7,5,8.1,7.9
	c-6.2-3.1-12.7-4.6-18.5-5.6c-10.4-2-21.1-1.5-31.3,1.4c-2.2,0.7-4.4,1.3-6.6,1.9c-1,0.3,0.1,3.1,1,2.9c6.1-1.7,12.3-4,19.1-4.3
	c5.1-0.2,10.2,0.1,15.2,0.8c8.1,1.1,17.4,3.2,25.6,9c3.2,4.9,6,10.1,8.2,15.5c2.3,5.4,4,11,5,16.8c-1.1,6.2-3.6,12.1-7.2,17.3
	c-8.6,11.6-21.2,15.2-31.6,17.3C57.5,103.7,49.7,104.9,41.8,103.8L41.8,103.8z M104.3,78.7c-1.4,14.3-12.1,20.6-20,23.6
	c-8.7,3.4-17.9,4.2-26.8,3.9c-2.6-0.1-5.1-0.3-7.7-0.7c9-0.4,18.2-1.5,27.3-4.7c9.6-3.4,20.5-9.9,26.2-24.3c0.4-1.1,0.8-2.1,1.1-3.2
	C104.5,75.2,104.5,76.9,104.3,78.7L104.3,78.7z"/>
<path id="Forma_1" class="st2" d="M70.5,70.2c-0.2-0.4-0.5-0.6-0.9-0.7c-0.5,0-1,0-1.5,0c3.3-3.9,2.6-10,2.5-11.2
	c0-0.1,0-0.2-0.1-0.4c-0.2-0.4-0.5-0.6-0.9-0.7c-0.1,0-0.6,0-1.5,0c3.3-3.9,2.6-10,2.5-11.2c0-0.1,0-0.2-0.1-0.4
	c-0.2-0.4-0.5-0.6-0.9-0.6c-0.3,0-7.2-0.4-10.9,3.9c-0.7,0.8-1.2,1.7-1.6,2.6c-0.4-0.9-0.9-1.8-1.6-2.6c-3.7-4.2-10.6-3.9-10.9-3.9
	c-0.4,0-0.8,0.3-0.9,0.6c-0.1,0.1-0.1,0.2-0.1,0.3c-0.2,1.1-0.9,7.2,2.5,11.2c-0.8-0.1-1.4,0-1.5,0c-0.4,0-0.8,0.3-0.9,0.7
	c0,0.1-0.1,0.2-0.1,0.3c-0.2,1.1-0.9,7.2,2.5,11.2c-0.5,0-1,0-1.5,0c-0.4,0-0.8,0.3-0.9,0.7c0,0.1-0.1,0.2-0.1,0.3
	c-0.2,1.1-0.9,7.4,2.6,11.3c2.9,3.4,7.9,3.9,9.9,4v1.9c0,0.6,0.5,1.1,1.1,1.1c0.6,0,1.1-0.5,1.1-1.1c0,0,0,0,0,0v-1.9
	c2-0.1,6.9-0.6,9.9-4c3.5-3.9,2.8-10.1,2.6-11.3C70.5,70.4,70.5,70.3,70.5,70.2z M45.5,59.5c1.8,0.1,6,0.5,8.4,3.1s2.2,7,2,8.9
	c-1.8-0.1-5.9-0.6-8.2-3.3C45.3,65.6,45.3,61.4,45.5,59.5z M55.9,83.7c-1.8-0.1-5.9-0.6-8.2-3.3c-2.3-2.7-2.3-6.9-2.2-8.7
	c1.8,0.1,6,0.5,8.4,3.1S56,81.8,55.9,83.7z M55.9,59.4c-1.8-0.1-5.9-0.6-8.2-3.3c-2.3-2.7-2.3-6.9-2.2-8.7c1.8,0.1,6,0.5,8.4,3.2
	S56,57.5,55.9,59.4z M68.6,59.5c0.1,1.8,0.2,6.1-2.2,8.7c-2.3,2.6-6.4,3.2-8.2,3.3c-0.2-1.9-0.3-6.2,2-8.9S66.7,59.6,68.6,59.5
	L68.6,59.5z M60.2,50.5c2.3-2.7,6.5-3.1,8.4-3.2c0.1,1.8,0.2,6.1-2.2,8.7c-2.3,2.6-6.4,3.2-8.2,3.3C58,57.5,57.9,53.2,60.2,50.5
	L60.2,50.5z M66.4,80.4c-2.3,2.6-6.4,3.2-8.2,3.3c-0.2-1.9-0.3-6.2,2-8.9s6.5-3.1,8.4-3.1C68.7,73.5,68.7,77.7,66.4,80.4L66.4,80.4z
	 M57,37.7c-0.6,0-1.1,0.5-1.1,1.1v5.5c0,0.6,0.5,1.1,1.1,1.1c0.6,0,1.1-0.5,1.1-1.1c0,0,0,0,0,0v-5.5C58.1,38.2,57.6,37.7,57,37.7
	C57,37.7,57,37.7,57,37.7L57,37.7z M57,34c-0.6,0-1.1,0.5-1.1,1.1v0c0,0.6,0.5,1.1,1.1,1.1c0.6,0,1.1-0.5,1.1-1.1c0,0,0,0,0,0v0
	C58.1,34.5,57.6,34,57,34C57,34,57,34,57,34L57,34z M51.9,39c-0.6,0-1.1,0.5-1.1,1.1c0,0,0,0,0,0v4.1c0,0.6,0.5,1.1,1.1,1.1
	c0.6,0,1.1-0.5,1.1-1.1c0,0,0,0,0,0v-4.1C53,39.5,52.5,39,51.9,39L51.9,39z M51.9,35.3c-0.6,0-1.1,0.5-1.1,1.1c0,0,0,0,0,0v0
	c0,0.6,0.5,1.1,1.1,1.1c0.6,0,1.1-0.5,1.1-1.1c0,0,0,0,0,0v0C53,35.8,52.5,35.3,51.9,35.3C52,35.3,52,35.3,51.9,35.3L51.9,35.3z
	 M62.1,39c-0.6,0-1.1,0.5-1.1,1.1v4.1c0,0.6,0.5,1.1,1,1.1c0.6,0,1.1-0.5,1.1-1c0,0,0,0,0,0v-4.1C63.1,39.5,62.6,39,62.1,39L62.1,39
	z M62.1,35.3c-0.6,0-1.1,0.5-1.1,1.1c0,0,0,0,0,0v0c0,0.6,0.5,1.1,1,1.1c0.6,0,1.1-0.5,1.1-1c0,0,0,0,0,0v0
	C63.1,35.8,62.7,35.3,62.1,35.3C62.1,35.3,62.1,35.3,62.1,35.3L62.1,35.3z"/>
</svg>
